<svg xmlns="http://www.w3.org/2000/svg" xmlns:xlink="http://www.w3.org/1999/xlink" width="200" zoomAndPan="magnify" viewBox="0 0 150 60" height="80" preserveAspectRatio="xMidYMid meet" version="1.0"><defs><g/><clipPath id="d742048e45"><path d="M 2.0625 6 L 149.0625 6 L 149.0625 54 L 2.0625 54 Z M 2.0625 6 " clip-rule="nonzero"/></clipPath><clipPath id="74115e727b"><path d="M 116 18.09375 L 141.371094 18.09375 L 141.371094 43.59375 L 116 43.59375 Z M 116 18.09375 " clip-rule="nonzero"/></clipPath><clipPath id="7fe1e5c89d"><path d="M 74.886719 9.101562 L 79.386719 9.101562 L 79.386719 13.601562 L 74.886719 13.601562 Z M 74.886719 9.101562 " clip-rule="nonzero"/></clipPath></defs><g clip-path="url(#d742048e45)"><path fill="#000000" d="M 16.332031 6 L 134.792969 6 C 142.671875 6 149.058594 12.402344 149.058594 20.300781 L 149.058594 39.699219 C 149.058594 47.597656 142.671875 54 134.792969 54 L 16.332031 54 C 8.453125 54 2.066406 47.597656 2.066406 39.699219 L 2.066406 20.300781 C 2.066406 12.402344 8.453125 6 16.332031 6 " fill-opacity="1" fill-rule="nonzero"/></g><g clip-path="url(#74115e727b)"><path fill="#d8d8d8" d="M 140.863281 30.253906 L 137.523438 28.128906 C 137.011719 27.804688 136.703125 27.058594 136.832031 26.46875 L 137.695312 22.601562 C 137.824219 22.015625 137.453125 21.636719 136.859375 21.769531 L 132.996094 22.632812 C 132.40625 22.761719 131.660156 22.453125 131.335938 21.941406 L 129.210938 18.601562 C 128.886719 18.089844 128.359375 18.089844 128.035156 18.601562 L 125.90625 21.941406 C 125.585938 22.453125 124.835938 22.761719 124.25 22.632812 L 120.382812 21.769531 C 119.792969 21.636719 119.417969 22.015625 119.550781 22.601562 L 120.410156 26.46875 C 120.542969 27.058594 120.234375 27.804688 119.722656 28.128906 L 116.378906 30.253906 C 115.871094 30.578125 115.871094 31.109375 116.378906 31.429688 L 119.722656 33.554688 C 120.234375 33.878906 120.542969 34.628906 120.410156 35.21875 L 119.550781 39.082031 C 119.417969 39.671875 119.792969 40.046875 120.382812 39.914062 L 124.25 39.054688 C 124.839844 38.921875 125.585938 39.234375 125.910156 39.742188 L 128.035156 43.085938 C 128.359375 43.59375 128.886719 43.59375 129.210938 43.085938 L 131.335938 39.742188 C 131.660156 39.230469 132.40625 38.921875 132.996094 39.054688 L 136.863281 39.914062 C 137.453125 40.046875 137.828125 39.671875 137.695312 39.082031 L 136.832031 35.21875 C 136.703125 34.628906 137.011719 33.878906 137.519531 33.554688 L 140.863281 31.429688 C 141.375 31.109375 141.375 30.578125 140.863281 30.253906 Z M 136.390625 31.78125 C 135.132812 32.582031 134.457031 34.21875 134.78125 35.675781 L 135.160156 37.378906 L 133.453125 37 C 133.214844 36.945312 132.964844 36.921875 132.710938 36.921875 C 131.449219 36.921875 130.214844 37.585938 129.558594 38.613281 L 128.621094 40.089844 L 127.683594 38.613281 C 127.03125 37.585938 125.792969 36.921875 124.53125 36.921875 C 124.28125 36.921875 124.03125 36.945312 123.792969 37 L 122.085938 37.378906 L 122.464844 35.675781 C 122.789062 34.214844 122.109375 32.578125 120.851562 31.78125 L 119.375 30.84375 L 120.851562 29.902344 C 122.109375 29.105469 122.789062 27.46875 122.464844 26.015625 L 122.085938 24.304688 L 123.789062 24.683594 C 124.03125 24.738281 124.28125 24.765625 124.53125 24.765625 C 125.792969 24.765625 127.03125 24.101562 127.683594 23.070312 L 128.621094 21.59375 L 129.5625 23.070312 C 130.214844 24.101562 131.453125 24.765625 132.714844 24.765625 C 132.964844 24.765625 133.210938 24.738281 133.449219 24.6875 L 135.160156 24.304688 L 134.78125 26.011719 C 134.457031 27.46875 135.136719 29.105469 136.394531 29.90625 L 137.871094 30.84375 Z M 136.390625 31.78125 " fill-opacity="1" fill-rule="nonzero"/></g><path fill="#d8d8d8" d="M 128.621094 25.582031 C 125.71875 25.582031 123.363281 27.9375 123.363281 30.84375 C 123.363281 33.746094 125.71875 36.101562 128.621094 36.101562 C 131.527344 36.101562 133.882812 33.746094 133.882812 30.84375 C 133.882812 27.9375 131.527344 25.582031 128.621094 25.582031 Z M 128.621094 34 C 126.878906 34 125.464844 32.585938 125.464844 30.84375 C 125.464844 29.097656 126.878906 27.6875 128.621094 27.6875 C 130.367188 27.6875 131.777344 29.097656 131.777344 30.84375 C 131.777344 32.585938 130.367188 34 128.621094 34 Z M 128.621094 34 " fill-opacity="1" fill-rule="nonzero"/><g clip-path="url(#7fe1e5c89d)"><path fill="#ec1d27" d="M 77.136719 9.101562 C 75.894531 9.101562 74.886719 10.109375 74.886719 11.351562 C 74.886719 12.59375 75.894531 13.601562 77.136719 13.601562 C 78.378906 13.601562 79.386719 12.59375 79.386719 11.351562 C 79.386719 10.109375 78.378906 9.101562 77.136719 9.101562 " fill-opacity="1" fill-rule="nonzero"/></g><g fill="#ff00ff" fill-opacity="1"><g transform="translate(11.180467, 39.623266)"><g><path d="M 0.863281 -2.371094 L 3.234375 -2.371094 L 3.234375 -11.214844 C 3.234375 -12.054688 3.925781 -12.722656 4.742188 -12.722656 L 13.585938 -12.722656 L 13.585938 -15.09375 L 4.742188 -15.09375 C 2.480469 -15.09375 0.863281 -13.5 0.863281 -11.214844 Z M 3.234375 0 L 12.074219 0 C 14.363281 0 15.957031 -1.597656 15.957031 -3.882812 L 15.957031 -12.722656 L 13.585938 -12.722656 L 13.585938 -3.882812 C 13.585938 -3.039062 12.917969 -2.371094 12.074219 -2.371094 L 3.234375 -2.371094 Z M 3.234375 0 "/></g></g></g><g fill="#ff00ff" fill-opacity="1"><g transform="translate(27.999926, 39.623266)"><g><path d="M 0.863281 -2.371094 L 3.214844 -2.371094 L 3.214844 -11.214844 C 3.214844 -12.054688 3.902344 -12.722656 4.722656 -12.722656 L 14.449219 -12.722656 L 14.449219 -15.09375 L 4.722656 -15.09375 C 2.242188 -15.09375 0.863281 -13.714844 0.863281 -11.214844 Z M 3.234375 0 L 12.097656 0 C 14.363281 0 15.957031 -1.617188 15.957031 -3.882812 L 15.957031 -8.734375 L 4.722656 -8.734375 L 4.722656 -6.363281 L 13.605469 -6.363281 L 13.605469 -3.882812 C 13.605469 -3.039062 12.917969 -2.371094 12.097656 -2.371094 L 3.234375 -2.371094 Z M 3.234375 0 "/></g></g></g><g fill="#ff00ff" fill-opacity="1"><g transform="translate(44.819386, 39.623266)"><g><path d="M 0.863281 -9.273438 L 3.234375 -9.273438 L 3.234375 -11.644531 L 0.863281 -11.644531 Z M 0.863281 -3.449219 L 3.234375 -3.449219 L 3.234375 -5.820312 L 0.863281 -5.820312 Z M 0.863281 -3.449219 "/></g></g></g><g fill="#ff00ff" fill-opacity="1"><g transform="translate(49.563338, 39.623266)"><g><path d="M 0.863281 -2.371094 L 3.234375 -2.371094 L 3.234375 -11.214844 C 3.234375 -12.054688 3.925781 -12.722656 4.742188 -12.722656 L 13.585938 -12.722656 L 13.585938 -15.09375 L 4.742188 -15.09375 C 2.480469 -15.09375 0.863281 -13.5 0.863281 -11.214844 Z M 3.234375 0 L 12.074219 0 C 14.363281 0 15.957031 -1.597656 15.957031 -3.882812 L 15.957031 -12.722656 L 13.585938 -12.722656 L 13.585938 -3.882812 C 13.585938 -3.039062 12.917969 -2.371094 12.074219 -2.371094 L 3.234375 -2.371094 Z M 3.234375 0 "/></g></g></g><g fill="#ff00ff" fill-opacity="1"><g transform="translate(66.382798, 39.623266)"><g><path d="M 0.863281 -2.371094 L 3.234375 -2.371094 L 3.234375 -11.214844 C 3.234375 -12.054688 3.925781 -12.722656 4.742188 -12.722656 L 13.585938 -12.722656 L 13.585938 -15.09375 L 4.742188 -15.09375 C 2.480469 -15.09375 0.863281 -13.5 0.863281 -11.214844 Z M 3.234375 0 L 12.074219 0 C 14.363281 0 15.957031 -1.597656 15.957031 -3.882812 L 15.957031 -12.722656 L 13.585938 -12.722656 L 13.585938 -3.882812 C 13.585938 -3.039062 12.917969 -2.371094 12.074219 -2.371094 L 3.234375 -2.371094 Z M 3.234375 0 "/></g></g></g><g fill="#00ffff" fill-opacity="1"><g transform="translate(11.171248, 39.648597)"><g><path d="M 0.863281 -2.371094 L 3.234375 -2.371094 L 3.234375 -11.214844 C 3.234375 -12.054688 3.925781 -12.722656 4.742188 -12.722656 L 13.585938 -12.722656 L 13.585938 -15.09375 L 4.742188 -15.09375 C 2.480469 -15.09375 0.863281 -13.5 0.863281 -11.214844 Z M 3.234375 0 L 12.074219 0 C 14.363281 0 15.957031 -1.597656 15.957031 -3.882812 L 15.957031 -12.722656 L 13.585938 -12.722656 L 13.585938 -3.882812 C 13.585938 -3.039062 12.917969 -2.371094 12.074219 -2.371094 L 3.234375 -2.371094 Z M 3.234375 0 "/></g></g></g><g fill="#00ffff" fill-opacity="1"><g transform="translate(27.990707, 39.648597)"><g><path d="M 0.863281 -2.371094 L 3.214844 -2.371094 L 3.214844 -11.214844 C 3.214844 -12.054688 3.902344 -12.722656 4.722656 -12.722656 L 14.449219 -12.722656 L 14.449219 -15.09375 L 4.722656 -15.09375 C 2.242188 -15.09375 0.863281 -13.714844 0.863281 -11.214844 Z M 3.234375 0 L 12.097656 0 C 14.363281 0 15.957031 -1.617188 15.957031 -3.882812 L 15.957031 -8.734375 L 4.722656 -8.734375 L 4.722656 -6.363281 L 13.605469 -6.363281 L 13.605469 -3.882812 C 13.605469 -3.039062 12.917969 -2.371094 12.097656 -2.371094 L 3.234375 -2.371094 Z M 3.234375 0 "/></g></g></g><g fill="#00ffff" fill-opacity="1"><g transform="translate(44.810166, 39.648597)"><g><path d="M 0.863281 -9.273438 L 3.234375 -9.273438 L 3.234375 -11.644531 L 0.863281 -11.644531 Z M 0.863281 -3.449219 L 3.234375 -3.449219 L 3.234375 -5.820312 L 0.863281 -5.820312 Z M 0.863281 -3.449219 "/></g></g></g><g fill="#00ffff" fill-opacity="1"><g transform="translate(49.554119, 39.648597)"><g><path d="M 0.863281 -2.371094 L 3.234375 -2.371094 L 3.234375 -11.214844 C 3.234375 -12.054688 3.925781 -12.722656 4.742188 -12.722656 L 13.585938 -12.722656 L 13.585938 -15.09375 L 4.742188 -15.09375 C 2.480469 -15.09375 0.863281 -13.5 0.863281 -11.214844 Z M 3.234375 0 L 12.074219 0 C 14.363281 0 15.957031 -1.597656 15.957031 -3.882812 L 15.957031 -12.722656 L 13.585938 -12.722656 L 13.585938 -3.882812 C 13.585938 -3.039062 12.917969 -2.371094 12.074219 -2.371094 L 3.234375 -2.371094 Z M 3.234375 0 "/></g></g></g><g fill="#00ffff" fill-opacity="1"><g transform="translate(66.373578, 39.648597)"><g><path d="M 0.863281 -2.371094 L 3.234375 -2.371094 L 3.234375 -11.214844 C 3.234375 -12.054688 3.925781 -12.722656 4.742188 -12.722656 L 13.585938 -12.722656 L 13.585938 -15.09375 L 4.742188 -15.09375 C 2.480469 -15.09375 0.863281 -13.5 0.863281 -11.214844 Z M 3.234375 0 L 12.074219 0 C 14.363281 0 15.957031 -1.597656 15.957031 -3.882812 L 15.957031 -12.722656 L 13.585938 -12.722656 L 13.585938 -3.882812 C 13.585938 -3.039062 12.917969 -2.371094 12.074219 -2.371094 L 3.234375 -2.371094 Z M 3.234375 0 "/></g></g></g><g fill="#e60000" fill-opacity="1"><g transform="translate(11.175857, 39.635931)"><g><path d="M 0.863281 -2.371094 L 3.234375 -2.371094 L 3.234375 -11.214844 C 3.234375 -12.054688 3.925781 -12.722656 4.742188 -12.722656 L 13.585938 -12.722656 L 13.585938 -15.09375 L 4.742188 -15.09375 C 2.480469 -15.09375 0.863281 -13.5 0.863281 -11.214844 Z M 3.234375 0 L 12.074219 0 C 14.363281 0 15.957031 -1.597656 15.957031 -3.882812 L 15.957031 -12.722656 L 13.585938 -12.722656 L 13.585938 -3.882812 C 13.585938 -3.039062 12.917969 -2.371094 12.074219 -2.371094 L 3.234375 -2.371094 Z M 3.234375 0 "/></g></g></g><g fill="#e60000" fill-opacity="1"><g transform="translate(27.995317, 39.635931)"><g><path d="M 0.863281 -2.371094 L 3.214844 -2.371094 L 3.214844 -11.214844 C 3.214844 -12.054688 3.902344 -12.722656 4.722656 -12.722656 L 14.449219 -12.722656 L 14.449219 -15.09375 L 4.722656 -15.09375 C 2.242188 -15.09375 0.863281 -13.714844 0.863281 -11.214844 Z M 3.234375 0 L 12.097656 0 C 14.363281 0 15.957031 -1.617188 15.957031 -3.882812 L 15.957031 -8.734375 L 4.722656 -8.734375 L 4.722656 -6.363281 L 13.605469 -6.363281 L 13.605469 -3.882812 C 13.605469 -3.039062 12.917969 -2.371094 12.097656 -2.371094 L 3.234375 -2.371094 Z M 3.234375 0 "/></g></g></g><g fill="#e60000" fill-opacity="1"><g transform="translate(44.814776, 39.635931)"><g><path d="M 0.863281 -9.273438 L 3.234375 -9.273438 L 3.234375 -11.644531 L 0.863281 -11.644531 Z M 0.863281 -3.449219 L 3.234375 -3.449219 L 3.234375 -5.820312 L 0.863281 -5.820312 Z M 0.863281 -3.449219 "/></g></g></g><g fill="#e60000" fill-opacity="1"><g transform="translate(49.558729, 39.635931)"><g><path d="M 0.863281 -2.371094 L 3.234375 -2.371094 L 3.234375 -11.214844 C 3.234375 -12.054688 3.925781 -12.722656 4.742188 -12.722656 L 13.585938 -12.722656 L 13.585938 -15.09375 L 4.742188 -15.09375 C 2.480469 -15.09375 0.863281 -13.5 0.863281 -11.214844 Z M 3.234375 0 L 12.074219 0 C 14.363281 0 15.957031 -1.597656 15.957031 -3.882812 L 15.957031 -12.722656 L 13.585938 -12.722656 L 13.585938 -3.882812 C 13.585938 -3.039062 12.917969 -2.371094 12.074219 -2.371094 L 3.234375 -2.371094 Z M 3.234375 0 "/></g></g></g><g fill="#e60000" fill-opacity="1"><g transform="translate(66.378188, 39.635931)"><g><path d="M 0.863281 -2.371094 L 3.234375 -2.371094 L 3.234375 -11.214844 C 3.234375 -12.054688 3.925781 -12.722656 4.742188 -12.722656 L 13.585938 -12.722656 L 13.585938 -15.09375 L 4.742188 -15.09375 C 2.480469 -15.09375 0.863281 -13.5 0.863281 -11.214844 Z M 3.234375 0 L 12.074219 0 C 14.363281 0 15.957031 -1.597656 15.957031 -3.882812 L 15.957031 -12.722656 L 13.585938 -12.722656 L 13.585938 -3.882812 C 13.585938 -3.039062 12.917969 -2.371094 12.074219 -2.371094 L 3.234375 -2.371094 Z M 3.234375 0 "/></g></g></g><g fill="#ff00ff" fill-opacity="1"><g transform="translate(83.201578, 39.623266)"><g/></g></g><g fill="#00ffff" fill-opacity="1"><g transform="translate(83.192359, 39.648597)"><g/></g></g><g fill="#e60000" fill-opacity="1"><g transform="translate(83.196969, 39.635931)"><g/></g></g><g fill="#ff00ff" fill-opacity="1"><g transform="translate(89.638715, 27.973856)"><g><path d="M 6.992188 0 L 8.210938 0 L 8.210938 -5.769531 C 8.210938 -6.890625 7.324219 -7.769531 6.203125 -7.769531 L 1.652344 -7.769531 L 1.652344 -6.546875 L 6.203125 -6.546875 C 6.636719 -6.546875 6.992188 -6.203125 6.992188 -5.769531 Z M 0.445312 0 L 1.652344 0 L 1.652344 -2.496094 L 6.214844 -2.496094 L 6.214844 -3.71875 L 1.652344 -3.71875 L 1.652344 -6.546875 L 0.445312 -6.546875 Z M 0.445312 0 "/></g></g></g><g fill="#ff00ff" fill-opacity="1"><g transform="translate(98.294214, 27.973856)"><g><path d="M 5.105469 0 C 6.3125 0 6.601562 -1.84375 6.859375 -3.230469 C 7.167969 -4.859375 7.523438 -6.546875 8.542969 -6.546875 L 8.542969 -7.769531 C 6.625 -7.769531 6.113281 -5.78125 5.660156 -3.460938 C 5.539062 -2.808594 5.347656 -1.53125 5.105469 -1.332031 C 4.894531 -1.476562 4.660156 -2.796875 4.527344 -3.472656 C 4.09375 -5.738281 3.5625 -7.769531 1.664062 -7.769531 L 1.664062 -6.546875 C 2.683594 -6.546875 3.019531 -4.839844 3.328125 -3.25 C 3.617188 -1.777344 3.917969 0 5.105469 0 Z M 0.445312 0 L 1.664062 0 L 1.664062 -6.546875 L 0.445312 -6.546875 Z M 8.542969 0 L 9.765625 0 L 9.765625 -6.546875 L 8.542969 -6.546875 Z M 8.542969 0 "/></g></g></g><g fill="#00ffff" fill-opacity="1"><g transform="translate(89.633967, 27.986889)"><g><path d="M 6.992188 0 L 8.210938 0 L 8.210938 -5.769531 C 8.210938 -6.890625 7.324219 -7.769531 6.203125 -7.769531 L 1.652344 -7.769531 L 1.652344 -6.546875 L 6.203125 -6.546875 C 6.636719 -6.546875 6.992188 -6.203125 6.992188 -5.769531 Z M 0.445312 0 L 1.652344 0 L 1.652344 -2.496094 L 6.214844 -2.496094 L 6.214844 -3.71875 L 1.652344 -3.71875 L 1.652344 -6.546875 L 0.445312 -6.546875 Z M 0.445312 0 "/></g></g></g><g fill="#00ffff" fill-opacity="1"><g transform="translate(98.289467, 27.986889)"><g><path d="M 5.105469 0 C 6.3125 0 6.601562 -1.84375 6.859375 -3.230469 C 7.167969 -4.859375 7.523438 -6.546875 8.542969 -6.546875 L 8.542969 -7.769531 C 6.625 -7.769531 6.113281 -5.78125 5.660156 -3.460938 C 5.539062 -2.808594 5.347656 -1.53125 5.105469 -1.332031 C 4.894531 -1.476562 4.660156 -2.796875 4.527344 -3.472656 C 4.09375 -5.738281 3.5625 -7.769531 1.664062 -7.769531 L 1.664062 -6.546875 C 2.683594 -6.546875 3.019531 -4.839844 3.328125 -3.25 C 3.617188 -1.777344 3.917969 0 5.105469 0 Z M 0.445312 0 L 1.664062 0 L 1.664062 -6.546875 L 0.445312 -6.546875 Z M 8.542969 0 L 9.765625 0 L 9.765625 -6.546875 L 8.542969 -6.546875 Z M 8.542969 0 "/></g></g></g><g fill="#e60000" fill-opacity="1"><g transform="translate(89.636341, 27.980372)"><g><path d="M 6.992188 0 L 8.210938 0 L 8.210938 -5.769531 C 8.210938 -6.890625 7.324219 -7.769531 6.203125 -7.769531 L 1.652344 -7.769531 L 1.652344 -6.546875 L 6.203125 -6.546875 C 6.636719 -6.546875 6.992188 -6.203125 6.992188 -5.769531 Z M 0.445312 0 L 1.652344 0 L 1.652344 -2.496094 L 6.214844 -2.496094 L 6.214844 -3.71875 L 1.652344 -3.71875 L 1.652344 -6.546875 L 0.445312 -6.546875 Z M 0.445312 0 "/></g></g></g><g fill="#e60000" fill-opacity="1"><g transform="translate(98.291841, 27.980372)"><g><path d="M 5.105469 0 C 6.3125 0 6.601562 -1.84375 6.859375 -3.230469 C 7.167969 -4.859375 7.523438 -6.546875 8.542969 -6.546875 L 8.542969 -7.769531 C 6.625 -7.769531 6.113281 -5.78125 5.660156 -3.460938 C 5.539062 -2.808594 5.347656 -1.53125 5.105469 -1.332031 C 4.894531 -1.476562 4.660156 -2.796875 4.527344 -3.472656 C 4.09375 -5.738281 3.5625 -7.769531 1.664062 -7.769531 L 1.664062 -6.546875 C 2.683594 -6.546875 3.019531 -4.839844 3.328125 -3.25 C 3.617188 -1.777344 3.917969 0 5.105469 0 Z M 0.445312 0 L 1.664062 0 L 1.664062 -6.546875 L 0.445312 -6.546875 Z M 8.542969 0 L 9.765625 0 L 9.765625 -6.546875 L 8.542969 -6.546875 Z M 8.542969 0 "/></g></g></g><g fill="#ff00ff" fill-opacity="1"><g transform="translate(108.502525, 27.973856)"><g/></g></g><g fill="#00ffff" fill-opacity="1"><g transform="translate(108.497778, 27.986889)"><g/></g></g><g fill="#e60000" fill-opacity="1"><g transform="translate(108.500151, 27.980372)"><g/></g></g></svg>