<svg xmlns="http://www.w3.org/2000/svg" xmlns:xlink="http://www.w3.org/1999/xlink" width="500" zoomAndPan="magnify" viewBox="0 0 375 299.999988" height="400" preserveAspectRatio="xMidYMid meet" version="1.0"><defs><g/><clipPath id="7091a21d13"><path d="M 71.882812 110.410156 L 257.882812 110.410156 L 257.882812 171.160156 L 71.882812 171.160156 Z M 71.882812 110.410156 " clip-rule="nonzero"/></clipPath><clipPath id="8b429973af"><path d="M 216 125.71875 L 248.207031 125.71875 L 248.207031 157.96875 L 216 157.96875 Z M 216 125.71875 " clip-rule="nonzero"/></clipPath><clipPath id="abf863a2b1"><path d="M 164.074219 114.339844 L 169.324219 114.339844 L 169.324219 119.589844 L 164.074219 119.589844 Z M 164.074219 114.339844 " clip-rule="nonzero"/></clipPath></defs><g clip-path="url(#7091a21d13)"><path fill="#000000" d="M 86.148438 110.410156 L 243.617188 110.410156 C 247.398438 110.410156 251.023438 111.917969 253.699219 114.597656 C 256.371094 117.28125 257.875 120.917969 257.875 124.707031 L 257.875 156.863281 C 257.875 160.65625 256.371094 164.292969 253.699219 166.972656 C 251.023438 169.65625 247.398438 171.160156 243.617188 171.160156 L 86.148438 171.160156 C 82.367188 171.160156 78.742188 169.65625 76.070312 166.972656 C 73.394531 164.292969 71.894531 160.65625 71.894531 156.863281 L 71.894531 124.707031 C 71.894531 120.917969 73.394531 117.28125 76.070312 114.597656 C 78.742188 111.917969 82.367188 110.410156 86.148438 110.410156 " fill-opacity="1" fill-rule="nonzero"/></g><g clip-path="url(#8b429973af)"><path fill="#d8d8d8" d="M 247.566406 141.101562 L 243.339844 138.410156 C 242.695312 138.003906 242.304688 137.058594 242.46875 136.3125 L 243.558594 131.425781 C 243.722656 130.679688 243.25 130.203125 242.503906 130.371094 L 237.617188 131.460938 C 236.871094 131.625 235.925781 131.234375 235.515625 130.589844 L 232.828125 126.363281 C 232.417969 125.71875 231.75 125.71875 231.339844 126.363281 L 228.652344 130.589844 C 228.242188 131.234375 227.296875 131.625 226.550781 131.460938 L 221.664062 130.371094 C 220.917969 130.203125 220.445312 130.679688 220.609375 131.425781 L 221.699219 136.3125 C 221.863281 137.058594 221.472656 138.003906 220.828125 138.410156 L 216.601562 141.101562 C 215.957031 141.507812 215.957031 142.179688 216.601562 142.589844 L 220.828125 145.277344 C 221.472656 145.6875 221.863281 146.632812 221.699219 147.378906 L 220.609375 152.265625 C 220.445312 153.007812 220.917969 153.484375 221.664062 153.320312 L 226.550781 152.230469 C 227.296875 152.066406 228.242188 152.457031 228.652344 153.101562 L 231.339844 157.328125 C 231.75 157.972656 232.417969 157.972656 232.828125 157.328125 L 235.515625 153.097656 C 235.925781 152.453125 236.871094 152.0625 237.617188 152.230469 L 242.503906 153.316406 C 243.25 153.484375 243.722656 153.011719 243.558594 152.265625 L 242.46875 147.378906 C 242.300781 146.632812 242.691406 145.6875 243.335938 145.277344 L 247.566406 142.589844 C 248.210938 142.179688 248.210938 141.507812 247.566406 141.101562 Z M 241.910156 143.03125 C 240.320312 144.042969 239.460938 146.113281 239.871094 147.957031 L 240.351562 150.113281 L 238.195312 149.632812 C 237.890625 149.5625 237.574219 149.53125 237.257812 149.53125 C 235.660156 149.53125 234.097656 150.371094 233.269531 151.671875 L 232.082031 153.539062 L 230.894531 151.671875 C 230.070312 150.371094 228.503906 149.53125 226.910156 149.53125 C 226.59375 149.53125 226.277344 149.5625 225.976562 149.628906 L 223.816406 150.113281 L 224.296875 147.957031 C 224.703125 146.109375 223.84375 144.042969 222.253906 143.03125 L 220.390625 141.84375 L 222.257812 140.65625 C 223.84375 139.648438 224.703125 137.578125 224.296875 135.738281 L 223.816406 133.574219 L 225.972656 134.058594 C 226.277344 134.125 226.59375 134.160156 226.910156 134.160156 C 228.503906 134.160156 230.070312 133.316406 230.898438 132.015625 L 232.082031 130.148438 L 233.273438 132.015625 C 234.097656 133.316406 235.664062 134.160156 237.257812 134.160156 C 237.574219 134.160156 237.890625 134.125 238.191406 134.058594 L 240.351562 133.578125 L 239.871094 135.734375 C 239.464844 137.578125 240.324219 139.648438 241.914062 140.660156 L 243.777344 141.84375 Z M 241.910156 143.03125 " fill-opacity="1" fill-rule="nonzero"/></g><path fill="#d8d8d8" d="M 232.082031 135.191406 C 228.410156 135.191406 225.429688 138.171875 225.429688 141.84375 C 225.429688 145.519531 228.410156 148.496094 232.082031 148.496094 C 235.757812 148.496094 238.734375 145.519531 238.734375 141.84375 C 238.734375 138.171875 235.757812 135.191406 232.082031 135.191406 Z M 232.082031 145.835938 C 229.878906 145.835938 228.09375 144.046875 228.09375 141.84375 C 228.09375 139.640625 229.878906 137.851562 232.082031 137.851562 C 234.289062 137.851562 236.074219 139.640625 236.074219 141.84375 C 236.074219 144.046875 234.289062 145.835938 232.082031 145.835938 Z M 232.082031 145.835938 " fill-opacity="1" fill-rule="nonzero"/><g clip-path="url(#abf863a2b1)"><path fill="#ec1d27" d="M 166.699219 114.339844 C 165.25 114.339844 164.074219 115.515625 164.074219 116.964844 C 164.074219 118.414062 165.25 119.589844 166.699219 119.589844 C 168.148438 119.589844 169.324219 118.414062 169.324219 116.964844 C 169.324219 115.515625 168.148438 114.339844 166.699219 114.339844 " fill-opacity="1" fill-rule="nonzero"/></g><g fill="#ff00ff" fill-opacity="1"><g transform="translate(84.109454, 152.975681)"><g><path d="M 1.09375 -3.003906 L 4.09375 -3.003906 L 4.09375 -14.195312 C 4.09375 -15.257812 4.96875 -16.105469 6.003906 -16.105469 L 17.199219 -16.105469 L 17.199219 -19.109375 L 6.003906 -19.109375 C 3.140625 -19.109375 1.09375 -17.089844 1.09375 -14.195312 Z M 4.09375 0 L 15.285156 0 C 18.179688 0 20.199219 -2.019531 20.199219 -4.914062 L 20.199219 -16.105469 L 17.199219 -16.105469 L 17.199219 -4.914062 C 17.199219 -3.847656 16.351562 -3.003906 15.285156 -3.003906 L 4.09375 -3.003906 Z M 4.09375 0 "/></g></g></g><g fill="#ff00ff" fill-opacity="1"><g transform="translate(105.401606, 152.975681)"><g><path d="M 1.09375 -16.105469 L 16.652344 -16.105469 L 16.652344 -19.109375 L 1.09375 -19.109375 Z M 5.1875 0 L 8.1875 0 C 8.1875 -6.6875 19.65625 -8.054688 19.65625 -16.105469 L 16.652344 -16.105469 C 16.652344 -9.691406 5.1875 -8.597656 5.1875 0 Z M 5.1875 0 "/></g></g></g><g fill="#ff00ff" fill-opacity="1"><g transform="translate(125.328879, 152.975681)"><g><path d="M 1.09375 -11.738281 L 4.09375 -11.738281 L 4.09375 -14.742188 L 1.09375 -14.742188 Z M 1.09375 -4.367188 L 4.09375 -4.367188 L 4.09375 -7.371094 L 1.09375 -7.371094 Z M 1.09375 -4.367188 "/></g></g></g><g fill="#ff00ff" fill-opacity="1"><g transform="translate(131.33436, 152.975681)"><g><path d="M 1.09375 -3.003906 L 4.09375 -3.003906 L 4.09375 -14.195312 C 4.09375 -15.257812 4.96875 -16.105469 6.003906 -16.105469 L 17.199219 -16.105469 L 17.199219 -19.109375 L 6.003906 -19.109375 C 3.140625 -19.109375 1.09375 -17.089844 1.09375 -14.195312 Z M 4.09375 0 L 15.285156 0 C 18.179688 0 20.199219 -2.019531 20.199219 -4.914062 L 20.199219 -16.105469 L 17.199219 -16.105469 L 17.199219 -4.914062 C 17.199219 -3.847656 16.351562 -3.003906 15.285156 -3.003906 L 4.09375 -3.003906 Z M 4.09375 0 "/></g></g></g><g fill="#ff00ff" fill-opacity="1"><g transform="translate(152.626512, 152.975681)"><g><path d="M 1.09375 -3.003906 L 4.09375 -3.003906 L 4.09375 -14.195312 C 4.09375 -15.257812 4.96875 -16.105469 6.003906 -16.105469 L 17.199219 -16.105469 L 17.199219 -19.109375 L 6.003906 -19.109375 C 3.140625 -19.109375 1.09375 -17.089844 1.09375 -14.195312 Z M 4.09375 0 L 15.285156 0 C 18.179688 0 20.199219 -2.019531 20.199219 -4.914062 L 20.199219 -16.105469 L 17.199219 -16.105469 L 17.199219 -4.914062 C 17.199219 -3.847656 16.351562 -3.003906 15.285156 -3.003906 L 4.09375 -3.003906 Z M 4.09375 0 "/></g></g></g><g fill="#00ffff" fill-opacity="1"><g transform="translate(84.097778, 153.007733)"><g><path d="M 1.09375 -3.003906 L 4.09375 -3.003906 L 4.09375 -14.195312 C 4.09375 -15.257812 4.96875 -16.105469 6.003906 -16.105469 L 17.199219 -16.105469 L 17.199219 -19.109375 L 6.003906 -19.109375 C 3.140625 -19.109375 1.09375 -17.089844 1.09375 -14.195312 Z M 4.09375 0 L 15.285156 0 C 18.179688 0 20.199219 -2.019531 20.199219 -4.914062 L 20.199219 -16.105469 L 17.199219 -16.105469 L 17.199219 -4.914062 C 17.199219 -3.847656 16.351562 -3.003906 15.285156 -3.003906 L 4.09375 -3.003906 Z M 4.09375 0 "/></g></g></g><g fill="#00ffff" fill-opacity="1"><g transform="translate(105.38993, 153.007733)"><g><path d="M 1.09375 -16.105469 L 16.652344 -16.105469 L 16.652344 -19.109375 L 1.09375 -19.109375 Z M 5.1875 0 L 8.1875 0 C 8.1875 -6.6875 19.65625 -8.054688 19.65625 -16.105469 L 16.652344 -16.105469 C 16.652344 -9.691406 5.1875 -8.597656 5.1875 0 Z M 5.1875 0 "/></g></g></g><g fill="#00ffff" fill-opacity="1"><g transform="translate(125.317203, 153.007733)"><g><path d="M 1.09375 -11.738281 L 4.09375 -11.738281 L 4.09375 -14.742188 L 1.09375 -14.742188 Z M 1.09375 -4.367188 L 4.09375 -4.367188 L 4.09375 -7.371094 L 1.09375 -7.371094 Z M 1.09375 -4.367188 "/></g></g></g><g fill="#00ffff" fill-opacity="1"><g transform="translate(131.322684, 153.007733)"><g><path d="M 1.09375 -3.003906 L 4.09375 -3.003906 L 4.09375 -14.195312 C 4.09375 -15.257812 4.96875 -16.105469 6.003906 -16.105469 L 17.199219 -16.105469 L 17.199219 -19.109375 L 6.003906 -19.109375 C 3.140625 -19.109375 1.09375 -17.089844 1.09375 -14.195312 Z M 4.09375 0 L 15.285156 0 C 18.179688 0 20.199219 -2.019531 20.199219 -4.914062 L 20.199219 -16.105469 L 17.199219 -16.105469 L 17.199219 -4.914062 C 17.199219 -3.847656 16.351562 -3.003906 15.285156 -3.003906 L 4.09375 -3.003906 Z M 4.09375 0 "/></g></g></g><g fill="#00ffff" fill-opacity="1"><g transform="translate(152.614836, 153.007733)"><g><path d="M 1.09375 -3.003906 L 4.09375 -3.003906 L 4.09375 -14.195312 C 4.09375 -15.257812 4.96875 -16.105469 6.003906 -16.105469 L 17.199219 -16.105469 L 17.199219 -19.109375 L 6.003906 -19.109375 C 3.140625 -19.109375 1.09375 -17.089844 1.09375 -14.195312 Z M 4.09375 0 L 15.285156 0 C 18.179688 0 20.199219 -2.019531 20.199219 -4.914062 L 20.199219 -16.105469 L 17.199219 -16.105469 L 17.199219 -4.914062 C 17.199219 -3.847656 16.351562 -3.003906 15.285156 -3.003906 L 4.09375 -3.003906 Z M 4.09375 0 "/></g></g></g><g fill="#e60000" fill-opacity="1"><g transform="translate(84.103617, 152.991708)"><g><path d="M 1.09375 -3.003906 L 4.09375 -3.003906 L 4.09375 -14.195312 C 4.09375 -15.257812 4.96875 -16.105469 6.003906 -16.105469 L 17.199219 -16.105469 L 17.199219 -19.109375 L 6.003906 -19.109375 C 3.140625 -19.109375 1.09375 -17.089844 1.09375 -14.195312 Z M 4.09375 0 L 15.285156 0 C 18.179688 0 20.199219 -2.019531 20.199219 -4.914062 L 20.199219 -16.105469 L 17.199219 -16.105469 L 17.199219 -4.914062 C 17.199219 -3.847656 16.351562 -3.003906 15.285156 -3.003906 L 4.09375 -3.003906 Z M 4.09375 0 "/></g></g></g><g fill="#e60000" fill-opacity="1"><g transform="translate(105.395769, 152.991708)"><g><path d="M 1.09375 -16.105469 L 16.652344 -16.105469 L 16.652344 -19.109375 L 1.09375 -19.109375 Z M 5.1875 0 L 8.1875 0 C 8.1875 -6.6875 19.65625 -8.054688 19.65625 -16.105469 L 16.652344 -16.105469 C 16.652344 -9.691406 5.1875 -8.597656 5.1875 0 Z M 5.1875 0 "/></g></g></g><g fill="#e60000" fill-opacity="1"><g transform="translate(125.323042, 152.991708)"><g><path d="M 1.09375 -11.738281 L 4.09375 -11.738281 L 4.09375 -14.742188 L 1.09375 -14.742188 Z M 1.09375 -4.367188 L 4.09375 -4.367188 L 4.09375 -7.371094 L 1.09375 -7.371094 Z M 1.09375 -4.367188 "/></g></g></g><g fill="#e60000" fill-opacity="1"><g transform="translate(131.328524, 152.991708)"><g><path d="M 1.09375 -3.003906 L 4.09375 -3.003906 L 4.09375 -14.195312 C 4.09375 -15.257812 4.96875 -16.105469 6.003906 -16.105469 L 17.199219 -16.105469 L 17.199219 -19.109375 L 6.003906 -19.109375 C 3.140625 -19.109375 1.09375 -17.089844 1.09375 -14.195312 Z M 4.09375 0 L 15.285156 0 C 18.179688 0 20.199219 -2.019531 20.199219 -4.914062 L 20.199219 -16.105469 L 17.199219 -16.105469 L 17.199219 -4.914062 C 17.199219 -3.847656 16.351562 -3.003906 15.285156 -3.003906 L 4.09375 -3.003906 Z M 4.09375 0 "/></g></g></g><g fill="#e60000" fill-opacity="1"><g transform="translate(152.620675, 152.991708)"><g><path d="M 1.09375 -3.003906 L 4.09375 -3.003906 L 4.09375 -14.195312 C 4.09375 -15.257812 4.96875 -16.105469 6.003906 -16.105469 L 17.199219 -16.105469 L 17.199219 -19.109375 L 6.003906 -19.109375 C 3.140625 -19.109375 1.09375 -17.089844 1.09375 -14.195312 Z M 4.09375 0 L 15.285156 0 C 18.179688 0 20.199219 -2.019531 20.199219 -4.914062 L 20.199219 -16.105469 L 17.199219 -16.105469 L 17.199219 -4.914062 C 17.199219 -3.847656 16.351562 -3.003906 15.285156 -3.003906 L 4.09375 -3.003906 Z M 4.09375 0 "/></g></g></g><g fill="#ff00ff" fill-opacity="1"><g transform="translate(173.917129, 152.975681)"><g/></g></g><g fill="#00ffff" fill-opacity="1"><g transform="translate(173.905453, 153.007733)"><g/></g></g><g fill="#e60000" fill-opacity="1"><g transform="translate(173.911292, 152.991708)"><g/></g></g><g fill="#ff00ff" fill-opacity="1"><g transform="translate(182.74883, 138.228414)"><g><path d="M 8.851562 0 L 10.394531 0 L 10.394531 -7.304688 C 10.394531 -8.722656 9.273438 -9.832031 7.851562 -9.832031 L 2.09375 -9.832031 L 2.09375 -8.289062 L 7.851562 -8.289062 C 8.402344 -8.289062 8.851562 -7.851562 8.851562 -7.304688 Z M 0.5625 0 L 2.09375 0 L 2.09375 -3.160156 L 7.867188 -3.160156 L 7.867188 -4.707031 L 2.09375 -4.707031 L 2.09375 -8.289062 L 0.5625 -8.289062 Z M 0.5625 0 "/></g></g></g><g fill="#ff00ff" fill-opacity="1"><g transform="translate(193.706034, 138.228414)"><g><path d="M 6.460938 0 C 7.992188 0 8.359375 -2.332031 8.683594 -4.089844 C 9.074219 -6.152344 9.523438 -8.289062 10.816406 -8.289062 L 10.816406 -9.832031 C 8.386719 -9.832031 7.742188 -7.320312 7.164062 -4.382812 C 7.011719 -3.554688 6.769531 -1.9375 6.460938 -1.6875 C 6.195312 -1.867188 5.898438 -3.539062 5.730469 -4.398438 C 5.183594 -7.261719 4.507812 -9.832031 2.105469 -9.832031 L 2.105469 -8.289062 C 3.398438 -8.289062 3.820312 -6.125 4.214844 -4.117188 C 4.578125 -2.246094 4.957031 0 6.460938 0 Z M 0.5625 0 L 2.105469 0 L 2.105469 -8.289062 L 0.5625 -8.289062 Z M 10.816406 0 L 12.363281 0 L 12.363281 -8.289062 L 10.816406 -8.289062 Z M 10.816406 0 "/></g></g></g><g fill="#00ffff" fill-opacity="1"><g transform="translate(182.742825, 138.24491)"><g><path d="M 8.851562 0 L 10.394531 0 L 10.394531 -7.304688 C 10.394531 -8.722656 9.273438 -9.832031 7.851562 -9.832031 L 2.09375 -9.832031 L 2.09375 -8.289062 L 7.851562 -8.289062 C 8.402344 -8.289062 8.851562 -7.851562 8.851562 -7.304688 Z M 0.5625 0 L 2.09375 0 L 2.09375 -3.160156 L 7.867188 -3.160156 L 7.867188 -4.707031 L 2.09375 -4.707031 L 2.09375 -8.289062 L 0.5625 -8.289062 Z M 0.5625 0 "/></g></g></g><g fill="#00ffff" fill-opacity="1"><g transform="translate(193.700029, 138.24491)"><g><path d="M 6.460938 0 C 7.992188 0 8.359375 -2.332031 8.683594 -4.089844 C 9.074219 -6.152344 9.523438 -8.289062 10.816406 -8.289062 L 10.816406 -9.832031 C 8.386719 -9.832031 7.742188 -7.320312 7.164062 -4.382812 C 7.011719 -3.554688 6.769531 -1.9375 6.460938 -1.6875 C 6.195312 -1.867188 5.898438 -3.539062 5.730469 -4.398438 C 5.183594 -7.261719 4.507812 -9.832031 2.105469 -9.832031 L 2.105469 -8.289062 C 3.398438 -8.289062 3.820312 -6.125 4.214844 -4.117188 C 4.578125 -2.246094 4.957031 0 6.460938 0 Z M 0.5625 0 L 2.105469 0 L 2.105469 -8.289062 L 0.5625 -8.289062 Z M 10.816406 0 L 12.363281 0 L 12.363281 -8.289062 L 10.816406 -8.289062 Z M 10.816406 0 "/></g></g></g><g fill="#e60000" fill-opacity="1"><g transform="translate(182.745828, 138.236663)"><g><path d="M 8.851562 0 L 10.394531 0 L 10.394531 -7.304688 C 10.394531 -8.722656 9.273438 -9.832031 7.851562 -9.832031 L 2.09375 -9.832031 L 2.09375 -8.289062 L 7.851562 -8.289062 C 8.402344 -8.289062 8.851562 -7.851562 8.851562 -7.304688 Z M 0.5625 0 L 2.09375 0 L 2.09375 -3.160156 L 7.867188 -3.160156 L 7.867188 -4.707031 L 2.09375 -4.707031 L 2.09375 -8.289062 L 0.5625 -8.289062 Z M 0.5625 0 "/></g></g></g><g fill="#e60000" fill-opacity="1"><g transform="translate(193.703031, 138.236663)"><g><path d="M 6.460938 0 C 7.992188 0 8.359375 -2.332031 8.683594 -4.089844 C 9.074219 -6.152344 9.523438 -8.289062 10.816406 -8.289062 L 10.816406 -9.832031 C 8.386719 -9.832031 7.742188 -7.320312 7.164062 -4.382812 C 7.011719 -3.554688 6.769531 -1.9375 6.460938 -1.6875 C 6.195312 -1.867188 5.898438 -3.539062 5.730469 -4.398438 C 5.183594 -7.261719 4.507812 -9.832031 2.105469 -9.832031 L 2.105469 -8.289062 C 3.398438 -8.289062 3.820312 -6.125 4.214844 -4.117188 C 4.578125 -2.246094 4.957031 0 6.460938 0 Z M 0.5625 0 L 2.105469 0 L 2.105469 -8.289062 L 0.5625 -8.289062 Z M 10.816406 0 L 12.363281 0 L 12.363281 -8.289062 L 10.816406 -8.289062 Z M 10.816406 0 "/></g></g></g><g fill="#ff00ff" fill-opacity="1"><g transform="translate(206.628978, 138.228414)"><g/></g></g><g fill="#00ffff" fill-opacity="1"><g transform="translate(206.622973, 138.24491)"><g/></g></g><g fill="#e60000" fill-opacity="1"><g transform="translate(206.625976, 138.236663)"><g/></g></g></svg>