<svg xmlns="http://www.w3.org/2000/svg" xmlns:xlink="http://www.w3.org/1999/xlink" width="1080" zoomAndPan="magnify" viewBox="0 0 810 809.999993" height="1080" preserveAspectRatio="xMidYMid meet" version="1.0"><defs><clipPath id="2e9d663a33"><path d="M 0 97.984375 L 805.5 97.984375 L 805.5 712.234375 L 0 712.234375 Z M 0 97.984375 " clip-rule="nonzero"/></clipPath></defs><path fill="#cb6ce6" d="M 523.046875 342.496094 C 522.671875 342.570312 522.292969 342.617188 521.933594 342.71875 C 515.089844 344.507812 508.519531 347.058594 502.066406 349.921875 C 496.605469 352.351562 491.359375 355.175781 486.6875 358.976562 C 483.589844 361.496094 480.476562 364.019531 477.402344 366.578125 C 470.808594 372.058594 463.710938 376.949219 457.726562 383.15625 C 456.925781 383.988281 456.707031 384.660156 457.039062 385.792969 C 460.382812 397.195312 462.085938 408.855469 462.402344 420.730469 C 462.667969 430.515625 460.816406 439.996094 458.628906 449.460938 C 455.539062 462.800781 450.265625 475.195312 442.769531 486.621094 C 439.496094 491.613281 435.933594 496.425781 432.511719 501.324219 C 428.414062 507.1875 423.890625 512.695312 418.703125 517.640625 C 417 519.257812 415.28125 520.855469 413.570312 522.457031 C 413.6875 522.59375 413.792969 522.726562 413.902344 522.859375 C 414.296875 522.71875 414.707031 522.625 415.066406 522.4375 C 421.628906 519.015625 428.285156 515.773438 434.699219 512.105469 C 442.878906 507.421875 450.078125 501.363281 457.113281 495.136719 C 466.875 486.492188 475.4375 476.851562 482.523438 465.839844 C 489.863281 454.449219 495.023438 442.203125 498.160156 429.078125 C 500.972656 417.296875 502.246094 405.273438 503.488281 393.242188 C 504.039062 387.878906 504.832031 382.539062 505.828125 377.246094 C 506.527344 373.519531 507.640625 369.863281 508.769531 366.242188 C 511.566406 357.195312 516.222656 349.257812 523.046875 342.496094 Z M 390.882812 522.960938 C 390.949219 522.882812 391.007812 522.800781 391.070312 522.71875 C 391.027344 522.632812 391.003906 522.53125 390.941406 522.464844 C 390.4375 521.941406 389.933594 521.425781 389.417969 520.921875 C 382.300781 514.085938 375.859375 506.671875 370.359375 498.457031 C 369.605469 497.335938 368.835938 496.230469 368.011719 495.164062 C 360.957031 486.070312 355.53125 476.054688 351.191406 465.433594 C 348.816406 459.621094 347.296875 453.542969 345.808594 447.449219 C 342.816406 435.25 341.710938 422.953125 343.140625 410.433594 C 344.105469 401.976562 345.480469 393.617188 347.96875 385.472656 C 348.230469 384.632812 348.128906 384.050781 347.460938 383.445312 C 345.03125 381.238281 342.75 378.863281 340.226562 376.78125 C 333.898438 371.5625 327.425781 366.535156 321.113281 361.316406 C 316.898438 357.828125 312.492188 354.695312 307.621094 352.199219 C 300.714844 348.660156 293.464844 346.019531 286.152344 343.535156 C 284.753906 343.058594 283.285156 342.796875 281.582031 342.367188 C 283.273438 344.234375 284.824219 345.808594 286.21875 347.507812 C 294.71875 357.800781 298.121094 370.1875 300.21875 382.957031 C 301.636719 391.542969 302.050781 400.292969 303.265625 408.929688 C 304.277344 416.160156 305.472656 423.410156 307.164062 430.515625 C 312.230469 451.804688 322.992188 470.046875 338.03125 485.742188 C 350.976562 499.242188 365.539062 510.710938 382.433594 518.996094 C 385.226562 520.363281 388.0625 521.644531 390.882812 522.960938 Z M 418.496094 528.730469 C 427.460938 532 436.046875 535.28125 445.058594 537.496094 C 456.746094 540.359375 468.273438 540.011719 479.777344 537.09375 C 489.800781 534.550781 498.898438 529.871094 507.628906 524.417969 C 515.054688 519.773438 522.03125 514.609375 527.957031 508.085938 C 534.808594 500.539062 540.113281 491.921875 545.265625 483.207031 C 550.417969 474.484375 553.242188 465.015625 554.203125 454.929688 C 555.042969 446.15625 556.007812 437.390625 557.035156 428.636719 C 557.914062 421.140625 560.320312 414.203125 564.824219 408.035156 C 567.789062 403.964844 571.546875 400.734375 575.429688 397.636719 C 577.746094 395.796875 580.28125 394.234375 582.730469 392.535156 C 581.636719 392.375 580.449219 392.066406 579.261719 392.058594 C 573.484375 392.011719 567.703125 391.988281 561.925781 392.085938 C 559.625 392.121094 557.28125 392.300781 555.035156 392.765625 C 549.722656 393.859375 544.40625 395.027344 539.160156 396.402344 C 530.089844 398.785156 521.46875 402.339844 513.417969 407.175781 C 511.070312 408.59375 508.855469 410.238281 506.601562 411.808594 C 506.367188 411.96875 506.160156 412.304688 506.113281 412.59375 C 505.777344 414.679688 505.292969 416.78125 505.226562 418.878906 C 504.945312 427.769531 503.710938 436.539062 501.910156 445.234375 C 499.832031 455.253906 495.785156 464.480469 490.601562 473.253906 C 484.945312 482.808594 478.632812 491.820312 470.164062 499.136719 C 466.589844 502.222656 462.945312 505.234375 459.320312 508.273438 C 449.800781 516.277344 438.945312 521.726562 427.078125 525.308594 C 424.246094 526.160156 421.554688 527.496094 418.496094 528.730469 Z M 386.507812 528.730469 C 383.246094 527.449219 380.355469 526.175781 377.363281 525.175781 C 370.632812 522.921875 364.03125 520.410156 357.851562 516.863281 C 351.792969 513.378906 346.464844 508.929688 341.046875 504.597656 C 331.261719 496.785156 323.234375 487.515625 316.46875 476.960938 C 306.667969 461.675781 301.683594 444.972656 300.226562 427.046875 C 299.882812 422.816406 299.433594 418.605469 299.132812 414.378906 C 299.019531 412.746094 298.375 411.753906 296.933594 410.902344 C 293.859375 409.101562 291.089844 406.753906 287.941406 405.136719 C 269.742188 395.804688 250.429688 391.109375 229.914062 391.746094 C 227.3125 391.824219 224.714844 392.214844 222.113281 392.457031 C 222.089844 392.589844 222.070312 392.71875 222.050781 392.84375 C 226.414062 394.671875 229.773438 397.863281 233.300781 400.835938 C 240.460938 406.847656 245.171875 414.417969 246.960938 423.578125 C 248.148438 429.667969 248.875 435.855469 249.625 442.027344 C 250.332031 447.859375 250.6875 453.738281 251.402344 459.574219 C 252.128906 465.472656 253.511719 471.234375 256.316406 476.542969 C 258.570312 480.796875 260.777344 485.085938 263.277344 489.191406 C 267.976562 496.902344 273 504.394531 279.503906 510.75 C 289.304688 520.316406 300.835938 527.316406 313.234375 532.925781 C 322.140625 536.953125 331.511719 539.125 341.3125 539.460938 C 348.171875 539.6875 354.792969 538.648438 361.453125 537.09375 C 369.976562 535.097656 377.960938 531.699219 386.507812 528.730469 Z M 402.453125 287.964844 C 401.46875 290.816406 400.515625 293.566406 399.5625 296.320312 C 394.972656 309.542969 389.417969 322.3125 382.496094 334.503906 C 379.007812 340.65625 375.792969 346.972656 372.691406 353.324219 C 365.59375 367.859375 359.839844 382.875 356.859375 398.84375 C 355.421875 406.519531 354.316406 414.234375 354.421875 422.058594 C 354.484375 426.589844 354.539062 431.132812 355.019531 435.621094 C 355.597656 441.054688 356.308594 446.515625 357.511719 451.84375 C 360.195312 463.753906 365.769531 474.523438 371.621094 485.097656 C 379.363281 499.089844 389.625 511.171875 400.644531 522.644531 C 401.957031 524.023438 403.003906 524.042969 404.292969 522.613281 C 409.015625 517.386719 413.878906 512.285156 418.347656 506.851562 C 427.800781 495.363281 435.15625 482.59375 441.394531 469.082031 C 447.285156 456.332031 449.84375 442.949219 450.4375 429.105469 C 450.671875 423.496094 450.425781 417.820312 449.875 412.222656 C 449.292969 406.265625 448.371094 400.300781 447.105469 394.441406 C 442.90625 375.023438 434.925781 357.023438 425.339844 339.785156 C 417.589844 325.847656 410.59375 311.644531 405.425781 296.558594 C 404.453125 293.714844 403.460938 290.882812 402.453125 287.964844 Z M 297.390625 397.550781 C 297.082031 394.328125 296.792969 391.214844 296.488281 388.101562 C 295.804688 380.988281 294.597656 373.976562 292.472656 367.140625 C 290.996094 362.402344 289.472656 357.667969 286.640625 353.519531 C 283.164062 348.425781 279.027344 343.953125 273.859375 340.488281 C 273.503906 340.253906 273.261719 339.859375 272.96875 339.535156 C 273.398438 339.390625 273.832031 339.121094 274.261719 339.121094 C 282.347656 339.128906 290.332031 339.953125 297.925781 342.863281 C 306.703125 346.234375 315.542969 349.515625 324.078125 353.4375 C 331.976562 357.070312 338.933594 362.34375 345.574219 367.960938 C 347.667969 369.722656 349.714844 371.554688 351.785156 373.359375 C 351.847656 373.328125 351.96875 373.308594 351.996094 373.238281 C 357.886719 359.785156 365.855469 347.582031 374.128906 335.511719 C 380.488281 326.21875 387.050781 316.976562 391.371094 306.476562 C 394.933594 297.820312 398.175781 289.023438 401.554688 280.289062 C 401.804688 279.644531 402.066406 279 402.628906 278.371094 C 403.734375 281.308594 404.835938 284.253906 405.957031 287.199219 C 409.117188 295.507812 412.015625 303.925781 416.0625 311.871094 C 417.515625 314.742188 419.113281 317.570312 420.871094 320.265625 C 426.179688 328.425781 431.585938 336.53125 436.988281 344.636719 C 443.019531 353.675781 448.425781 363.054688 452.808594 373.011719 C 452.859375 373.140625 452.949219 373.253906 453.054688 373.425781 C 455.101562 371.644531 457.109375 369.863281 459.148438 368.121094 C 465.394531 362.785156 472.035156 357.96875 479.320312 354.183594 C 484.167969 351.675781 489.304688 349.722656 494.351562 347.601562 C 500.589844 344.992188 506.917969 342.574219 513.5 340.933594 C 519.148438 339.523438 524.902344 339.1875 530.6875 339.121094 C 531.109375 339.113281 531.53125 339.410156 531.960938 339.570312 C 531.695312 339.859375 531.472656 340.214844 531.15625 340.4375 C 522.871094 346.253906 516.867188 353.742188 513.605469 363.457031 C 510.554688 372.5625 508.890625 381.910156 508.105469 391.441406 C 507.9375 393.449219 507.734375 395.457031 507.535156 397.621094 C 507.964844 397.421875 508.226562 397.328125 508.460938 397.179688 C 514.855469 393.207031 521.90625 391.074219 529.226562 389.671875 C 535.054688 388.550781 540.914062 387.847656 546.871094 387.8125 C 550.277344 387.800781 553.679688 387.082031 557.089844 387.015625 C 561.414062 386.925781 565.75 387.101562 570.070312 387.304688 C 574.015625 387.476562 577.96875 387.804688 581.722656 389.113281 C 584.617188 390.128906 587.441406 391.335938 590.273438 392.523438 C 590.742188 392.71875 591.0625 393.261719 591.453125 393.644531 C 590.996094 393.859375 590.554688 394.152344 590.070312 394.261719 C 587.835938 394.757812 585.945312 395.871094 584.367188 397.480469 C 574.660156 407.417969 567.546875 418.945312 563.953125 432.394531 C 562.421875 438.082031 561.8125 444.027344 560.84375 449.871094 C 559.617188 457.300781 557.738281 464.558594 555.191406 471.644531 C 554.410156 473.820312 553.578125 475.980469 552.894531 478.179688 C 549.621094 488.816406 544.144531 498.296875 537.800781 507.339844 C 529.820312 518.714844 519.726562 527.941406 508.304688 535.648438 C 500.839844 540.6875 492.566406 544.398438 483.574219 545.769531 C 476.960938 546.769531 470.230469 546.839844 463.5625 545.53125 C 461.980469 545.222656 460.308594 545.277344 458.679688 545.285156 C 453.089844 545.296875 447.675781 544.078125 442.292969 542.796875 C 431.753906 540.285156 421.429688 537.078125 411.5 532.691406 C 411.191406 532.554688 410.867188 532.4375 410.605469 532.234375 C 407.96875 530.214844 404.855469 530.683594 401.863281 530.5625 C 400.8125 530.523438 399.746094 530.578125 398.691406 530.644531 C 398.082031 530.683594 397.382812 530.675781 396.878906 530.964844 C 390.035156 534.859375 382.460938 536.824219 375.09375 539.351562 C 367.136719 542.085938 358.960938 543.753906 350.679688 545.050781 C 349.921875 545.171875 349.136719 545.238281 348.371094 545.175781 C 343.808594 544.816406 339.382812 546.035156 334.875 546.34375 C 318.84375 547.457031 304.957031 541.996094 292.34375 532.609375 C 283.828125 526.28125 276.019531 519.175781 269.59375 510.6875 C 261.59375 500.121094 255.203125 488.742188 251.242188 475.972656 C 249.15625 469.214844 246.582031 462.601562 245.183594 455.65625 C 244.003906 449.804688 243.050781 443.898438 242.152344 438.003906 C 240.804688 429.191406 237.457031 421.175781 232.886719 413.605469 C 229.761719 408.4375 226.359375 403.488281 222.171875 399.09375 C 219.929688 396.742188 217.550781 394.738281 214.261719 394.09375 C 213.972656 394.03125 213.726562 393.777344 213.457031 393.617188 C 213.65625 393.375 213.8125 393.011719 214.074219 392.90625 C 217.019531 391.632812 219.890625 390.0625 222.957031 389.230469 C 226.5 388.261719 230.210938 387.875 233.871094 387.390625 C 236.441406 387.054688 239.058594 386.765625 241.640625 386.847656 C 246.695312 387 251.738281 387.445312 256.785156 387.746094 C 259.714844 387.921875 262.660156 387.921875 265.582031 388.222656 C 276.570312 389.34375 287.265625 391.488281 296.859375 397.414062 C 296.933594 397.460938 297.039062 397.460938 297.390625 397.550781 " fill-opacity="1" fill-rule="evenodd"/><path fill="#cb6ce6" d="M 223.226562 693.417969 C 226.554688 689.316406 229.453125 684.929688 232.953125 680.976562 C 244.21875 668.269531 258.394531 660.269531 274.625 655.714844 C 282.226562 653.582031 290.015625 652.582031 297.851562 651.945312 C 310.847656 650.890625 323.574219 648.601562 335.65625 643.53125 C 342.425781 640.691406 348.59375 636.8125 353.492188 631.230469 C 354.820312 629.71875 355.839844 627.941406 356.972656 626.273438 C 357.496094 625.5 357.46875 624.707031 357.167969 623.808594 C 354.566406 616.074219 353.203125 608.109375 352.996094 599.949219 C 352.875 595.003906 353.277344 590.113281 355.027344 585.4375 C 355.417969 584.410156 355.941406 583.394531 356.589844 582.53125 C 356.933594 582.074219 357.710938 581.953125 358.289062 581.679688 C 358.554688 582.253906 359.066406 582.839844 359.039062 583.394531 C 358.945312 585.414062 358.628906 587.421875 358.46875 589.441406 C 357.609375 600.089844 358.984375 610.515625 361.453125 620.855469 C 364.085938 631.875 368.5 642.1875 374.046875 651.984375 C 377.890625 658.773438 382.152344 665.328125 386.417969 671.871094 C 393.027344 682.011719 398.53125 692.664062 402.421875 704.515625 C 402.957031 703.070312 403.414062 701.910156 403.832031 700.738281 C 407.863281 689.398438 413.640625 678.996094 420.433594 669.09375 C 429.472656 655.914062 437.179688 642.007812 441.878906 626.652344 C 445.5625 614.589844 447.445312 602.210938 446.453125 589.527344 C 446.304688 587.601562 446.03125 585.699219 445.855469 583.773438 C 445.78125 582.960938 445.703125 581.867188 446.6875 581.753906 C 447.300781 581.683594 448.238281 582.324219 448.621094 582.914062 C 450.292969 585.464844 450.996094 588.375 451.390625 591.355469 C 452.859375 602.390625 451.144531 613.085938 447.816406 623.585938 C 447.460938 624.707031 447.546875 625.59375 448.089844 626.585938 C 450.078125 630.210938 452.867188 633.121094 456.046875 635.679688 C 463.433594 641.625 471.996094 645.152344 481.074219 647.582031 C 489.621094 649.871094 498.308594 651.253906 507.125 651.945312 C 519 652.871094 530.605469 654.984375 541.675781 659.605469 C 556.921875 665.980469 569.105469 675.945312 578.632812 689.074219 C 579.609375 690.417969 581.664062 693.390625 581.925781 693.394531 C 581.132812 691.566406 580.296875 689.753906 579.558594 687.902344 C 578.34375 684.863281 577.082031 681.835938 576.035156 678.742188 C 570.847656 663.445312 563.992188 648.949219 554.371094 635.953125 C 542.648438 620.113281 528.03125 607.679688 509.507812 600.386719 C 505.460938 598.796875 501.066406 598.085938 496.832031 596.964844 C 495.8125 596.695312 494.765625 596.460938 493.800781 596.042969 C 492.765625 595.609375 492.71875 594.683594 493.746094 594.257812 C 494.792969 593.828125 495.953125 593.574219 497.089844 593.5 C 502.644531 593.117188 507.9375 594.304688 512.96875 596.582031 C 522.9375 601.089844 531.910156 607.136719 539.859375 614.652344 C 552.863281 626.9375 562.757812 641.410156 570.3125 657.574219 C 574.363281 666.242188 577.632812 675.1875 580.417969 684.3125 C 581.578125 688.109375 582.386719 692.015625 583.320312 695.878906 C 583.429688 696.328125 583.335938 696.824219 583.335938 697.476562 C 583.046875 697.292969 582.851562 697.246094 582.777344 697.121094 C 578.089844 689.070312 571.835938 682.390625 564.859375 676.304688 C 551.867188 664.960938 536.503906 659.035156 519.671875 656.613281 C 512.996094 655.652344 506.234375 655.332031 499.53125 654.546875 C 489.367188 653.351562 479.300781 651.609375 469.628906 648.125 C 462.863281 645.695312 456.503906 642.457031 451.148438 637.585938 C 448.9375 635.566406 447.105469 633.121094 445.089844 630.859375 C 445.132812 630.792969 444.972656 631.007812 444.855469 631.25 C 439.261719 643.671875 432.734375 655.574219 425.292969 666.988281 C 423.1875 670.214844 420.910156 673.339844 418.765625 676.542969 C 413.570312 684.277344 409.054688 692.390625 405.527344 701.019531 C 404.6875 703.058594 404.273438 705.257812 403.65625 707.378906 C 403.554688 707.75 403.523438 708.15625 403.328125 708.472656 C 403.140625 708.773438 402.75 709.191406 402.507812 709.15625 C 402.167969 709.105469 401.851562 708.714844 401.5625 708.425781 C 401.441406 708.304688 401.386719 708.085938 401.355469 707.894531 C 400.1875 701.449219 397.207031 695.746094 394.1875 690.019531 C 390.472656 682.96875 386.078125 676.359375 381.582031 669.792969 C 375.230469 660.511719 369.480469 650.863281 364.582031 640.726562 C 362.957031 637.351562 361.320312 633.980469 359.804688 630.855469 C 357.851562 633.070312 356.039062 635.503906 353.832031 637.515625 C 348.460938 642.441406 342.050781 645.691406 335.242188 648.144531 C 326.304688 651.367188 317.019531 653.109375 307.628906 654.25 C 300.113281 655.15625 292.539062 655.574219 285.050781 656.640625 C 270.382812 658.71875 256.722656 663.566406 244.75 672.523438 C 236.703125 678.546875 229.746094 685.667969 224.015625 693.945312 C 223.257812 695.039062 221.566406 697.300781 221.566406 697.300781 C 221.566406 697.300781 221.664062 696.046875 221.75 695.421875 C 222.5 690.117188 224.277344 685.078125 225.882812 679.996094 C 231.308594 662.757812 238.910156 646.574219 249.644531 632.023438 C 260.058594 617.917969 272.636719 606.167969 288.453125 598.199219 C 294.523438 595.136719 300.832031 593.066406 307.742188 593.496094 C 308.828125 593.5625 309.921875 593.824219 310.976562 594.144531 C 311.335938 594.253906 311.792969 594.804688 311.792969 595.152344 C 311.792969 595.480469 311.304688 596.003906 310.933594 596.113281 C 309.183594 596.628906 307.417969 597.125 305.621094 597.460938 C 298.628906 598.753906 292.214844 601.507812 285.929688 604.78125 C 272.34375 611.867188 261.480469 622.070312 252.066406 633.914062 C 246.816406 640.523438 242.535156 647.808594 238.703125 655.359375 C 234.160156 664.324219 230.585938 673.664062 227.316406 683.144531 C 226.144531 686.546875 223.277344 693.457031 223.226562 693.417969 " fill-opacity="1" fill-rule="evenodd"/><g clip-path="url(#2e9d663a33)"><path fill="#cb6ce6" d="M 283.21875 241.417969 C 283.863281 240.59375 284.414062 239.9375 284.917969 239.238281 C 289.335938 233.125 294.261719 227.4375 299.785156 222.308594 C 304.734375 217.714844 309.839844 213.300781 314.847656 208.769531 C 318.421875 205.535156 321.925781 202.222656 325.507812 199 C 326.453125 198.148438 326.558594 197.390625 326.109375 196.222656 C 324.808594 192.847656 322.882812 189.863281 320.683594 187.042969 C 316.523438 181.730469 312.351562 176.414062 308.125 171.160156 C 304.996094 167.261719 301.917969 163.359375 300.601562 158.246094 C 300.226562 158.59375 300 158.761719 299.835938 158.976562 C 296.53125 163.351562 293.550781 168.035156 289.867188 172.074219 C 276.273438 186.96875 269.050781 204.488281 267.25 224.445312 C 267.042969 226.800781 267.371094 228.558594 269.585938 229.738281 C 270.417969 230.1875 271.117188 230.90625 271.839844 231.535156 C 275.558594 234.75 279.261719 237.96875 283.21875 241.417969 Z M 505.925781 158.398438 C 505.761719 158.679688 505.496094 158.984375 505.394531 159.332031 C 504.480469 162.652344 502.683594 165.5 500.589844 168.167969 C 495.894531 174.160156 491.148438 180.125 486.421875 186.097656 C 484.019531 189.128906 481.878906 192.3125 480.355469 195.902344 C 479.710938 197.410156 480 198.289062 481.199219 199.347656 C 488.199219 205.554688 495.089844 211.882812 502.066406 218.109375 C 509.367188 224.613281 516.035156 231.683594 521.746094 239.632812 C 522.171875 240.238281 522.703125 240.761719 523.160156 241.292969 C 523.503906 241.125 523.703125 241.078125 523.835938 240.957031 C 528.59375 236.878906 533.304688 232.742188 538.121094 228.738281 C 539.207031 227.839844 539.316406 226.914062 539.203125 225.707031 C 538.335938 216.359375 536.691406 207.1875 533.117188 198.4375 C 529.546875 189.707031 524.929688 181.59375 518.644531 174.554688 C 514.074219 169.445312 510.050781 163.933594 505.925781 158.398438 Z M 700.203125 235.332031 C 698.542969 235.152344 697.296875 234.863281 696.070312 234.917969 C 690.875 235.132812 685.621094 235.023438 680.503906 235.808594 C 671.65625 237.171875 662.867188 238.984375 654.101562 240.835938 C 645.964844 242.558594 638.304688 245.753906 630.722656 249.136719 C 629.015625 249.894531 628.292969 251.042969 627.972656 252.804688 C 625.636719 265.804688 623.347656 278.804688 622.367188 291.996094 C 622.027344 296.601562 622.058594 301.191406 622.105469 306 C 622.890625 305.800781 623.339844 305.6875 623.792969 305.566406 C 631.40625 303.484375 638.980469 301.25 646.648438 299.359375 C 651.132812 298.25 655.734375 297.648438 660.300781 296.894531 C 661.394531 296.714844 662.347656 296.464844 663.019531 295.507812 C 665.597656 291.796875 668.386719 288.214844 670.730469 284.355469 C 673.585938 279.644531 675.324219 274.398438 677.195312 269.226562 C 678.828125 264.710938 680.578125 260.207031 682.609375 255.851562 C 685.320312 250.042969 689.058594 244.882812 693.773438 240.507812 C 695.660156 238.753906 697.78125 237.265625 700.203125 235.332031 Z M 184.226562 305.988281 C 184.226562 302.382812 184.367188 299.109375 184.199219 295.847656 C 183.433594 281.277344 180.992188 266.921875 178.335938 252.597656 C 178.011719 250.851562 177.21875 249.886719 175.703125 249.1875 C 169.296875 246.25 162.808594 243.4375 155.960938 241.808594 C 147.527344 239.800781 138.992188 238.207031 130.484375 236.515625 C 123.835938 235.199219 117.113281 234.667969 110.335938 234.902344 C 109.035156 234.945312 107.734375 235.1875 106.175781 235.367188 C 108.484375 237.199219 110.617188 238.667969 112.503906 240.417969 C 117.441406 244.996094 121.304688 250.417969 124.089844 256.53125 C 126.082031 260.90625 127.839844 265.40625 129.417969 269.949219 C 132.347656 278.382812 136.019531 286.367188 141.621094 293.441406 C 143.441406 295.742188 145.371094 296.902344 148.257812 297.296875 C 156.382812 298.40625 164.414062 300.042969 172.277344 302.425781 C 176.125 303.597656 180 304.726562 184.226562 305.988281 Z M 233.484375 525.214844 C 231.953125 524.597656 230.902344 524.148438 229.828125 523.738281 C 220.191406 520.007812 210.800781 515.78125 201.828125 510.636719 C 175.019531 495.25 153.589844 473.960938 134.871094 449.691406 C 133.820312 448.320312 132.945312 446.308594 131.570312 445.847656 C 130.046875 445.328125 128.007812 446.109375 126.25 446.5625 C 113.765625 449.816406 102.398438 455.453125 92.269531 463.378906 C 80.59375 472.496094 70.269531 483 61.183594 494.738281 C 51.886719 506.757812 44.410156 519.933594 36.386719 532.757812 C 32.019531 539.734375 27.484375 546.519531 21.820312 552.503906 C 20.984375 553.382812 20.265625 554.375 19.039062 555.859375 C 22.265625 555.410156 24.800781 555.101562 27.324219 554.699219 C 37.160156 553.121094 47.007812 551.996094 56.976562 553.222656 C 63.875 554.066406 70.773438 554.96875 77.171875 557.890625 C 83.480469 560.769531 89.8125 563.636719 95.964844 566.824219 C 105.222656 571.613281 114.5625 576.15625 124.648438 579 C 132.113281 581.109375 139.582031 581.777344 147.21875 579.96875 C 148.894531 579.570312 150.175781 578.792969 151.421875 577.660156 C 154.925781 574.492188 158.523438 571.433594 162.089844 568.339844 C 163.6875 566.945312 165.367188 565.636719 166.894531 564.167969 C 185.273438 546.464844 206.546875 533.65625 230.96875 526.15625 C 231.671875 525.941406 232.351562 525.644531 233.484375 525.214844 Z M 573.148438 525.089844 C 573.613281 525.472656 573.742188 525.644531 573.90625 525.707031 C 574.539062 525.925781 575.191406 526.109375 575.832031 526.308594 C 595.121094 532.28125 612.667969 541.554688 628.273438 554.371094 C 633.265625 558.46875 637.960938 562.910156 642.816406 567.171875 C 647.023438 570.847656 651.238281 574.519531 655.503906 578.121094 C 656.351562 578.839844 657.402344 579.492188 658.464844 579.757812 C 664.628906 581.328125 670.828125 581.457031 677.082031 580.128906 C 686.496094 578.121094 695.269531 574.4375 703.839844 570.191406 C 709.621094 567.328125 715.339844 564.320312 721.074219 561.363281 C 732.714844 555.363281 745.171875 552.859375 758.175781 552.707031 C 766.410156 552.605469 774.484375 554.019531 782.589844 555.222656 C 783.960938 555.421875 785.328125 555.609375 786.695312 555.804688 C 786.046875 554.28125 785.226562 553.234375 784.320312 552.277344 C 779.613281 547.269531 775.527344 541.796875 771.917969 535.953125 C 766.851562 527.753906 761.765625 519.558594 756.707031 511.359375 C 746.140625 494.222656 733.183594 479.132812 717.71875 466.257812 C 705.757812 456.300781 692.339844 449.1875 677.023438 445.851562 C 675.222656 445.464844 674.269531 445.886719 673.164062 447.300781 C 668.714844 453 664.367188 458.800781 659.511719 464.136719 C 652.445312 471.90625 645.433594 479.835938 637.578125 486.761719 C 619.960938 502.300781 600.316406 514.789062 578.195312 523.09375 C 576.578125 523.707031 574.988281 524.363281 573.148438 525.089844 Z M 796.746094 315 C 796.554688 314.835938 796.378906 314.625 796.15625 314.507812 C 788.925781 310.8125 781.410156 307.839844 773.535156 305.8125 C 762.488281 302.976562 751.238281 301.363281 739.949219 299.933594 C 726.460938 298.222656 712.996094 298.578125 699.53125 299.976562 C 691.855469 300.765625 684.207031 301.765625 676.539062 302.59375 C 665.113281 303.828125 653.769531 305.496094 642.636719 308.382812 C 636.398438 310.007812 630.257812 312.027344 624.058594 313.839844 C 622.617188 314.253906 622.113281 315.058594 622.261719 316.589844 C 622.933594 323.398438 623.496094 330.222656 624.121094 337.046875 C 625.777344 355.101562 627.488281 373.132812 626.332031 391.328125 C 625.609375 402.808594 624.671875 414.1875 622.160156 425.449219 C 619.824219 435.9375 616.753906 446.160156 612.199219 455.890625 C 602.195312 477.234375 588.714844 496.164062 572.097656 512.863281 C 571.53125 513.425781 571.03125 514.050781 570.21875 514.964844 C 570.960938 514.800781 571.246094 514.789062 571.480469 514.6875 C 586.582031 507.757812 601.316406 500.101562 614.921875 490.558594 C 637.78125 474.53125 657.128906 454.871094 673.894531 432.585938 C 684.339844 418.699219 693.628906 404.023438 703.246094 389.578125 C 713.914062 373.570312 725.597656 358.398438 738.925781 344.496094 C 747.355469 335.707031 756.800781 328.359375 767.589844 322.722656 C 772.753906 320.019531 778.230469 318.152344 783.90625 316.976562 C 788.121094 316.113281 792.414062 315.65625 796.746094 315 Z M 236.09375 515.203125 C 235.699219 514.472656 235.628906 514.277344 235.503906 514.136719 C 235.113281 513.714844 234.703125 513.304688 234.300781 512.898438 C 220.453125 499 208.902344 483.421875 199.367188 466.277344 C 190.355469 450.054688 185.050781 432.640625 182.070312 414.425781 C 180.824219 406.789062 180.515625 399.078125 180.050781 391.382812 C 179.308594 379.125 179.636719 366.890625 180.675781 354.671875 C 181.714844 342.570312 182.882812 330.472656 183.871094 318.359375 C 184.246094 313.84375 184.800781 314.597656 180.402344 313.152344 C 169.402344 309.53125 158.21875 306.449219 146.734375 304.914062 C 131.066406 302.8125 115.355469 300.96875 99.621094 299.433594 C 92.550781 298.742188 85.363281 298.773438 78.246094 299.003906 C 68.015625 299.332031 57.898438 300.894531 47.820312 302.605469 C 35.019531 304.78125 22.582031 308.09375 10.992188 314.132812 C 10.539062 314.375 10.109375 314.671875 9.207031 315.214844 C 10.441406 315.308594 11.109375 315.359375 11.765625 315.40625 C 16.675781 315.796875 21.511719 316.574219 26.269531 317.898438 C 39.3125 321.527344 50.351562 328.679688 60.257812 337.589844 C 68.511719 345.011719 75.945312 353.269531 82.921875 361.914062 C 93.234375 374.6875 102.386719 388.289062 111.371094 402.011719 C 116.433594 409.753906 121.585938 417.457031 126.949219 425 C 136.289062 438.144531 146.257812 450.769531 157.929688 461.988281 C 167.390625 471.082031 176.757812 480.253906 187.511719 487.875 C 201.480469 497.78125 216.421875 505.992188 231.878906 513.292969 C 233.082031 513.855469 234.300781 514.394531 236.09375 515.203125 Z M 142.863281 183.246094 L 142.789062 183.304688 L 142.890625 183.160156 C 143.144531 183.492188 143.324219 183.964844 143.660156 184.164062 C 149.785156 187.800781 154.867188 192.679688 159.648438 197.867188 C 166.34375 205.140625 170.953125 213.726562 174.394531 222.902344 C 178.691406 234.359375 182.683594 245.910156 184.949219 258.027344 C 187.175781 269.984375 189.183594 281.953125 190.296875 294.0625 C 191.617188 308.375 190.167969 322.585938 188.867188 336.804688 C 188.027344 345.929688 187.035156 355.042969 186.324219 364.175781 C 185.117188 379.628906 185.839844 395.046875 188.027344 410.363281 C 190.015625 424.246094 193.503906 437.773438 199.386719 450.597656 C 211.34375 476.652344 228.34375 498.78125 250.765625 516.703125 C 259.992188 524.082031 270.332031 529.363281 281.507812 533.046875 C 289.128906 535.5625 297.027344 536.871094 304.929688 538.171875 C 311.425781 539.246094 317.917969 539.929688 324.492188 540.042969 C 327.191406 540.089844 329.894531 540.253906 332.570312 540.554688 C 335.15625 540.851562 337.851562 541.039062 340.214844 541.96875 C 341.722656 542.574219 343.09375 542.863281 344.609375 542.800781 C 346.347656 542.734375 348.097656 542.714844 349.808594 542.453125 C 356.28125 541.46875 362.742188 540.332031 369.222656 539.351562 C 378.933594 537.882812 388.222656 535.160156 396.878906 530.441406 C 397.933594 529.867188 398.792969 529.308594 399.1875 528.0625 C 399.792969 526.128906 401.214844 524.960938 403.28125 525 C 405.351562 525.042969 406.527344 526.375 407.332031 528.207031 C 407.65625 528.925781 408.230469 529.710938 408.910156 530.074219 C 411.277344 531.355469 413.710938 532.535156 416.183594 533.617188 C 421.328125 535.863281 426.65625 537.507812 432.210938 538.40625 C 440.488281 539.75 448.734375 541.285156 457.039062 542.464844 C 460.28125 542.921875 463.722656 543.722656 466.828125 541.613281 C 467.042969 541.46875 467.386719 541.5 467.675781 541.472656 C 472.566406 540.984375 477.449219 540.179688 482.339844 540.078125 C 493.3125 539.855469 504.039062 537.992188 514.691406 535.742188 C 529.722656 532.5625 543.429688 526.371094 555.503906 516.761719 C 568.042969 506.789062 579.0625 495.363281 588.433594 482.375 C 598.082031 469.007812 606.179688 454.789062 611.492188 439.128906 C 615.6875 426.757812 618.269531 414.027344 619.429688 400.984375 C 620.476562 389.234375 620.992188 377.480469 620.113281 365.726562 C 619.136719 352.546875 617.875 339.390625 616.558594 326.246094 C 615.550781 316.132812 615.261719 306.007812 615.941406 295.894531 C 616.988281 280.371094 619.585938 265.042969 623.242188 249.949219 C 625.167969 242.003906 628.078125 234.300781 630.628906 226.515625 C 632.949219 219.425781 636.027344 212.632812 640.207031 206.460938 C 651.820312 189.285156 664.066406 183.414062 664.078125 183.472656 C 661.792969 183.519531 659.476562 183.351562 657.214844 183.640625 C 647.238281 184.9375 637.484375 187.304688 627.996094 190.574219 C 608.433594 197.316406 589.566406 205.601562 571.941406 216.554688 C 561.953125 222.765625 551.621094 228.464844 542.410156 235.84375 C 538.046875 239.347656 533.855469 243.0625 529.667969 246.765625 C 527.78125 248.429688 527.871094 248.53125 529.152344 250.613281 C 530.558594 252.914062 531.96875 255.214844 533.378906 257.523438 C 543.730469 274.457031 551.554688 292.378906 554.726562 312.132812 C 556.027344 320.226562 557.496094 328.257812 557.15625 336.550781 C 556.820312 344.46875 555.886719 352.296875 554.867188 360.140625 C 553.753906 368.769531 551.960938 377.238281 549.78125 385.644531 C 549.464844 386.847656 549.011719 388.042969 548.414062 389.128906 C 547.453125 390.859375 546.066406 391.933594 543.898438 391.296875 C 543.550781 391.1875 542.992188 391.035156 542.8125 391.203125 C 541.347656 392.609375 539.765625 392.550781 538.015625 391.859375 C 537.652344 391.71875 537.046875 391.941406 536.652344 392.167969 C 535.402344 392.871094 534.175781 393.625 532.988281 394.421875 C 530.988281 395.765625 529.03125 397.179688 527.03125 398.507812 C 526.5625 398.816406 525.976562 399.003906 525.421875 399.121094 C 524.570312 399.285156 524.144531 398.730469 524.480469 397.90625 C 524.664062 397.460938 524.910156 397.03125 525.210938 396.664062 C 527.660156 393.570312 529.96875 390.335938 532.640625 387.449219 C 536.550781 383.210938 539.605469 378.472656 541.972656 373.253906 C 544.898438 366.796875 546.957031 360.089844 547.964844 353.078125 C 548.796875 347.257812 549.6875 341.449219 549.117188 335.511719 C 548.160156 325.511719 546.613281 315.601562 544.320312 305.832031 C 535.753906 269.304688 516.972656 238.777344 489.652344 213.324219 C 481.535156 205.757812 472.921875 198.773438 464.140625 191.980469 C 454.296875 184.367188 444.582031 176.636719 435.589844 167.960938 C 421.554688 154.402344 411.742188 138.277344 404.957031 120.148438 C 404.144531 117.972656 403.1875 110.921875 403.1875 110.921875 C 403.1875 110.921875 401.890625 119.253906 400.710938 122.050781 C 398.683594 126.835938 396.394531 131.511719 394.195312 136.222656 C 386.191406 153.332031 373.261719 166.410156 359.246094 178.515625 C 353.195312 183.742188 346.734375 188.507812 340.40625 193.410156 C 327.199219 203.65625 314.492188 214.425781 303.375 226.992188 C 290.8125 241.179688 280.285156 256.652344 272.6875 274.0625 C 266.292969 288.730469 261.796875 303.949219 259.308594 319.742188 C 257.71875 329.835938 256.234375 339.886719 257.910156 350.21875 C 259.488281 359.933594 261.929688 369.28125 266.761719 377.875 C 268.351562 380.714844 270.398438 383.316406 272.402344 385.894531 C 275.179688 389.464844 278.132812 392.898438 280.972656 396.429688 C 281.527344 397.125 282.535156 398.046875 281.667969 398.859375 C 281.292969 399.214844 279.835938 398.789062 279.113281 398.335938 C 276.992188 397.011719 275.039062 395.421875 272.941406 394.058594 C 271.070312 392.84375 269.398438 391.242188 266.667969 392.25 C 264.777344 392.953125 262.976562 390.316406 260.75 391.402344 C 260.515625 391.523438 259.976562 391.25 259.703125 391.015625 C 259.121094 390.523438 258.476562 390.019531 258.113281 389.375 C 257.542969 388.382812 257.054688 387.308594 256.757812 386.203125 C 255.777344 382.480469 254.710938 378.753906 254.019531 374.972656 C 252.859375 368.625 251.96875 362.222656 250.953125 355.847656 C 249.007812 343.480469 248.480469 331.121094 250.503906 318.695312 C 252.96875 303.585938 256.382812 288.761719 263.480469 275.074219 C 267.519531 267.292969 271.941406 259.703125 276.308594 252.09375 C 278.476562 248.316406 278.597656 248.378906 275.261719 245.398438 C 266.6875 237.734375 257.671875 230.675781 247.808594 224.699219 C 233.28125 215.910156 218.90625 206.910156 203.199219 200.25 C 189.597656 194.484375 175.917969 189.007812 161.421875 185.875 C 155.300781 184.546875 149.191406 183.132812 142.863281 183.246094 Z M 633.246094 566.480469 C 627.898438 563.027344 622.699219 559.320312 617.175781 556.179688 C 607.113281 550.453125 596.652344 545.53125 585.785156 541.445312 C 575.484375 537.570312 565.179688 533.796875 554.429688 531.347656 C 551.53125 530.683594 549.042969 531.082031 546.402344 532.449219 C 538.777344 536.386719 531.003906 540.050781 522.644531 542.21875 C 517.792969 543.480469 512.875 544.488281 508.042969 545.808594 C 501.617188 547.566406 495.183594 549.183594 488.5625 550.023438 C 477.847656 551.382812 467.164062 551.175781 456.570312 549.269531 C 450.222656 548.128906 443.945312 546.558594 437.703125 544.910156 C 427.789062 542.277344 418.167969 538.878906 409.753906 532.746094 C 409.3125 532.421875 408.78125 532.214844 408.105469 531.851562 C 407.613281 535.003906 408.511719 537.621094 409.828125 540.078125 C 418.832031 556.824219 430.78125 570.753906 447.78125 579.925781 C 462.621094 587.933594 478.328125 592.152344 495.257812 591.421875 C 503.835938 591.046875 512.363281 590.09375 520.867188 588.859375 C 531.359375 587.328125 541.851562 585.726562 552.390625 584.605469 C 566.070312 583.148438 579.773438 584.011719 593.410156 585.394531 C 605.648438 586.628906 617.445312 589.984375 629.078125 593.878906 C 640.699219 597.761719 651.519531 603.222656 661.28125 610.617188 C 678.859375 623.9375 693.117188 640.027344 702.160156 660.378906 C 702.390625 660.894531 703.515625 662.53125 703.558594 662.71875 C 703.507812 662.539062 702.832031 660.070312 702.53125 659.269531 C 700.417969 653.59375 698.585938 647.804688 696.164062 642.261719 C 689.5 627.042969 662.074219 587.460938 633.246094 566.480469 Z M 102.714844 662.886719 C 102.921875 662.371094 103.128906 661.855469 103.339844 661.34375 C 103.78125 660.667969 104.277344 660.015625 104.660156 659.304688 C 106.660156 655.574219 108.578125 651.789062 110.625 648.085938 C 114.53125 641.027344 119.683594 634.878906 125.015625 628.914062 C 136.789062 615.738281 150.457031 604.988281 166.78125 598.015625 C 183.277344 590.972656 200.449219 586.414062 218.394531 584.851562 C 236.46875 583.28125 254.417969 584.019531 272.324219 586.722656 C 283.660156 588.433594 294.941406 590.503906 306.441406 591.140625 C 314.074219 591.570312 321.636719 591.644531 329.203125 590.273438 C 348.25 586.824219 364.828125 578.558594 378.597656 564.917969 C 385.777344 557.8125 391.472656 549.546875 396.203125 540.640625 C 397.300781 538.5625 397.746094 536.121094 398.394531 533.816406 C 398.550781 533.273438 398.320312 532.625 398.242188 531.683594 C 396.710938 532.683594 395.5625 533.578125 394.304688 534.242188 C 389.96875 536.535156 385.769531 539.253906 381.1875 540.898438 C 369.101562 545.21875 356.75 548.652344 343.945312 550.128906 C 332.449219 551.449219 321.019531 551.121094 309.707031 548.640625 C 304.347656 547.457031 299.105469 545.707031 293.71875 544.660156 C 281.480469 542.277344 270.035156 537.855469 259.085938 532.011719 C 257.152344 530.980469 255.160156 530.5625 252.972656 531.167969 C 247.492188 532.683594 241.910156 533.886719 236.53125 535.683594 C 229.59375 538.003906 222.796875 540.769531 215.953125 543.378906 C 201.1875 549.003906 187.417969 556.511719 174.484375 565.535156 C 168.792969 569.507812 162.996094 573.34375 158.238281 578.511719 C 151.960938 585.320312 134.664062 600.511719 125.59375 613.785156 C 117.648438 625.417969 111.371094 637.988281 106.574219 651.257812 C 105.363281 654.585938 104.460938 658.023438 103.414062 661.417969 C 103.15625 661.921875 102.902344 662.425781 102.648438 662.925781 C 102.707031 662.988281 102.796875 663.035156 102.828125 663.109375 C 102.847656 663.160156 102.800781 663.25 102.78125 663.316406 C 102.761719 663.175781 102.734375 663.035156 102.714844 662.886719 Z M 0.414062 317.601562 C 8.472656 311.71875 17.226562 307.121094 26.585938 303.746094 C 39.058594 299.25 52 296.660156 65.035156 294.421875 C 82.226562 291.46875 99.433594 291.964844 116.671875 293.6875 C 122.714844 294.292969 128.765625 294.875 134.8125 295.453125 C 135.1875 295.492188 135.570312 295.460938 135.964844 295.460938 C 135.964844 295.199219 136.046875 294.949219 135.953125 294.84375 C 131.476562 289.617188 129.753906 283.140625 127.8125 276.792969 C 125.652344 269.699219 124.144531 262.40625 120.863281 255.679688 C 118.402344 250.613281 115.460938 245.886719 111.589844 241.773438 C 109.382812 239.425781 106.734375 237.6875 103.949219 236.117188 C 103.511719 235.871094 103.246094 235.320312 102.894531 234.910156 C 103.324219 234.554688 103.707031 233.953125 104.175781 233.878906 C 107.3125 233.382812 110.449219 232.710938 113.609375 232.628906 C 121.425781 232.429688 129.210938 233.140625 136.953125 234.28125 C 142.199219 235.050781 147.492188 235.523438 152.730469 236.320312 C 159.902344 237.421875 166.855469 239.40625 173.65625 241.910156 C 174.101562 242.078125 174.550781 242.21875 175.234375 242.460938 C 175.234375 241.828125 175.34375 241.371094 175.222656 240.984375 C 171.738281 229.644531 168.359375 218.285156 162.351562 207.910156 C 159.273438 202.589844 155.289062 198.035156 151.167969 193.566406 C 147.960938 190.089844 144.675781 186.675781 140.441406 184.398438 C 138.527344 183.378906 136.535156 182.515625 134.175781 181.386719 C 135.242188 181.234375 135.953125 181.070312 136.664062 181.046875 C 154.402344 180.226562 171.632812 182.609375 188.363281 188.773438 C 207.773438 195.921875 226.492188 204.542969 244.65625 214.398438 C 250.074219 217.34375 255.402344 220.472656 260.777344 223.503906 C 261.171875 223.726562 261.601562 223.914062 262.285156 224.25 C 262.710938 221.792969 263.097656 219.558594 263.46875 217.316406 C 265.558594 204.671875 271.214844 193.558594 278.246094 183.050781 C 281.3125 178.476562 284.929688 174.355469 288.753906 170.371094 C 293.222656 165.726562 297.460938 160.855469 300.683594 154.804688 C 301.152344 155.816406 301.589844 156.554688 301.851562 157.347656 C 303.113281 161.210938 305.554688 164.242188 308.246094 167.210938 C 314.652344 174.273438 320.929688 181.46875 327.199219 188.667969 C 328.519531 190.183594 329.539062 191.953125 330.828125 193.785156 C 331.316406 193.484375 331.894531 193.203125 332.363281 192.808594 C 339.675781 186.667969 347.144531 180.6875 354.230469 174.296875 C 364.984375 164.59375 375.167969 154.320312 383.355469 142.253906 C 386.5 137.625 389.734375 133.0625 392.808594 128.386719 C 397.796875 120.785156 400.878906 112.402344 402.476562 103.480469 C 402.796875 101.6875 402.796875 99.84375 403.191406 97.984375 C 403.339844 99.042969 403.523438 100.097656 403.640625 101.164062 C 404.675781 110.324219 407.726562 118.804688 412.476562 126.648438 C 422.683594 143.496094 434.921875 158.734375 449.5 172 C 455.632812 177.582031 462.121094 182.769531 468.445312 188.128906 C 470.726562 190.0625 473.023438 191.960938 475.402344 193.949219 C 476.683594 192.128906 477.765625 190.292969 479.140625 188.707031 C 485.402344 181.5 491.660156 174.300781 498.085938 167.242188 C 500.851562 164.203125 503.3125 161.070312 504.609375 157.132812 C 504.789062 156.585938 505.058594 156.070312 505.332031 155.5625 C 505.40625 155.425781 505.648438 155.378906 505.878906 155.257812 C 509.648438 161.78125 514.785156 167.195312 519.804688 172.75 C 532.304688 186.566406 540.917969 202.367188 543.515625 221.082031 C 543.621094 221.847656 543.765625 222.613281 543.910156 223.363281 C 543.945312 223.550781 544.046875 223.71875 544.214844 224.113281 C 544.863281 223.792969 545.523438 223.519531 546.140625 223.15625 C 569.480469 209.472656 593.640625 197.496094 619.167969 188.414062 C 629.660156 184.675781 640.371094 181.855469 651.566406 181.453125 C 657.632812 181.238281 663.703125 181.164062 669.777344 181.046875 C 670.347656 181.03125 671.722656 181.46875 671.964844 181.742188 C 665.308594 183.6875 660.492188 188.144531 655.765625 192.882812 C 647.003906 201.664062 640.886719 212.023438 636.746094 223.617188 C 634.894531 228.792969 633.296875 234.058594 631.605469 239.285156 C 631.320312 240.179688 631.144531 241.105469 630.835938 242.324219 C 631.441406 242.246094 631.800781 242.273438 632.105469 242.152344 C 642.609375 238.050781 653.558594 235.945312 664.75 234.871094 C 672.136719 234.167969 679.511719 233.300781 686.90625 232.675781 C 691.621094 232.273438 696.359375 232.503906 700.992188 233.582031 C 701.941406 233.804688 702.8125 234.339844 704.140625 234.917969 C 703.039062 235.65625 702.449219 236.140625 701.792969 236.480469 C 697.144531 238.921875 693.613281 242.566406 690.640625 246.808594 C 685.9375 253.515625 682.933594 260.984375 680.71875 268.847656 C 679.019531 274.867188 677.191406 280.867188 675.148438 286.785156 C 674.378906 289.019531 672.867188 290.996094 671.660156 293.078125 C 671.246094 293.796875 670.714844 294.453125 669.964844 295.539062 C 671.347656 295.414062 672.257812 295.332031 673.175781 295.246094 C 687.191406 293.902344 701.203125 292.285156 715.304688 292.253906 C 730.441406 292.207031 745.253906 294.703125 759.953125 298.097656 C 769.078125 300.210938 778.15625 302.511719 786.644531 306.566406 C 792.109375 309.175781 797.382812 312.214844 802.746094 315.066406 C 803.167969 315.292969 804.65625 317.160156 805.027344 317.796875 C 804.335938 318.011719 799.972656 318.308594 798.511719 318.421875 C 794.796875 318.722656 791.179688 319.675781 787.582031 320.675781 C 772.734375 324.828125 759.605469 332.140625 748.359375 342.695312 C 740.410156 350.164062 732.875 358.035156 725.890625 366.441406 C 721.128906 372.1875 717.324219 378.558594 713.292969 384.792969 C 702.347656 401.714844 692.558594 419.375 680.917969 435.855469 C 679.589844 437.742188 678.425781 439.734375 677.109375 441.785156 C 677.605469 442.042969 677.90625 442.28125 678.242188 442.363281 C 694.53125 446.253906 708.777344 453.964844 721.296875 465.042969 C 735.726562 477.8125 747.664062 492.640625 757.761719 508.976562 C 763.34375 517.996094 768.703125 527.15625 774.175781 536.238281 C 777.921875 542.453125 782.324219 548.183594 787.09375 553.644531 C 788.085938 554.785156 788.917969 556.0625 790.078125 557.617188 C 787.292969 558.058594 785.101562 557.308594 782.898438 556.988281 C 772.171875 555.421875 761.429688 554.792969 750.601562 555.917969 C 740.160156 557 730.554688 560.582031 721.363281 565.441406 C 717.023438 567.742188 712.800781 570.273438 708.460938 572.585938 C 697.960938 578.175781 687.199219 583.085938 675.382812 585.289062 C 671.835938 585.945312 668.292969 585.917969 664.722656 585.597656 C 664.195312 585.550781 663.664062 585.515625 662.394531 585.421875 C 687.589844 611.839844 702.917969 642.710938 710.019531 677.707031 C 712.453125 689.710938 713.171875 706.292969 711.882812 712.148438 C 711.613281 711.15625 711.417969 710.695312 711.378906 710.21875 C 710.976562 705.707031 710.777344 701.167969 710.152344 696.691406 C 709.496094 692.019531 708.460938 687.40625 707.5625 682.769531 C 705.550781 672.40625 701.261719 662.921875 696.003906 653.902344 C 685.664062 636.175781 671.796875 621.742188 654.359375 610.851562 C 645.066406 605.054688 635.097656 600.707031 624.554688 597.679688 C 616.859375 595.472656 609.144531 593.3125 601.167969 592.386719 C 595.808594 591.769531 590.414062 591.191406 585.023438 591.132812 C 575.867188 591.019531 566.664062 590.84375 557.558594 591.601562 C 548.164062 592.386719 538.804688 593.957031 529.527344 595.714844 C 516.800781 598.125 504.023438 599.914062 491.078125 600.25 C 483.011719 600.460938 475.109375 599.183594 467.320312 597.226562 C 451.195312 593.171875 436.96875 585.464844 424.648438 574.363281 C 416.867188 567.351562 410.714844 558.90625 404.917969 550.214844 C 404.488281 549.578125 404.066406 548.933594 403.609375 548.316406 C 403.507812 548.175781 403.28125 548.136719 402.964844 547.976562 C 402.449219 548.742188 401.925781 549.53125 401.394531 550.316406 C 395.113281 559.609375 388.527344 568.695312 379.910156 575.980469 C 365.628906 588.078125 349.265625 595.824219 330.734375 599.015625 C 320.429688 600.789062 310.164062 600.257812 299.878906 599.265625 C 290.558594 598.367188 281.386719 596.527344 272.195312 594.730469 C 265.964844 593.507812 259.609375 592.863281 253.300781 592.046875 C 243.125 590.730469 232.898438 590.859375 222.675781 591.011719 C 204.417969 591.292969 186.886719 595.125 169.96875 601.816406 C 152.515625 608.710938 137.777344 619.488281 125.265625 633.445312 C 114.429688 645.535156 106.148438 659.121094 101.023438 674.515625 C 98.347656 682.558594 96.769531 690.914062 95.9375 699.382812 C 95.578125 703.117188 95.242188 706.855469 94.871094 710.59375 C 94.839844 710.949219 94.675781 711.285156 94.457031 712.054688 C 93.71875 708.882812 94.140625 700.453125 94.140625 699.011719 C 94.152344 684.566406 97.480469 670.71875 101.667969 657.035156 C 106.4375 641.449219 113.410156 626.855469 122.085938 613.085938 C 127.753906 604.082031 134.441406 595.84375 141.5625 587.953125 C 142.199219 587.253906 142.808594 586.53125 143.75 585.449219 C 142.695312 585.53125 142.085938 585.542969 141.488281 585.617188 C 134.8125 586.449219 128.425781 585.082031 122.132812 583.09375 C 112.617188 580.101562 103.632812 575.933594 95.039062 570.871094 C 87.976562 566.703125 80.648438 563.003906 73.011719 559.984375 C 66.148438 557.269531 58.917969 556.039062 51.570312 555.550781 C 40.929688 554.847656 30.382812 555.804688 19.882812 557.542969 C 19.21875 557.652344 18.546875 557.75 17.882812 557.796875 C 17.527344 557.832031 17.164062 557.738281 16.375 557.664062 C 17.355469 556.269531 18.066406 555.027344 18.992188 553.972656 C 25.40625 546.722656 30.730469 538.742188 35.617188 530.375 C 44.699219 514.796875 53.925781 499.277344 65.464844 485.3125 C 73.242188 475.914062 81.777344 467.261719 91.4375 459.816406 C 102.257812 451.480469 114.347656 445.625 127.699219 442.492188 C 127.980469 442.425781 128.257812 442.34375 128.523438 442.222656 C 128.691406 442.148438 128.828125 442 129.121094 441.785156 C 128.71875 441.074219 128.335938 440.324219 127.875 439.625 C 125.316406 435.769531 122.660156 431.96875 120.171875 428.066406 C 115.871094 421.316406 111.679688 414.503906 107.425781 407.722656 C 100.5 396.695312 93.820312 385.503906 86.539062 374.722656 C 82.398438 368.589844 77.441406 362.988281 72.535156 357.425781 C 68.464844 352.796875 64.023438 348.480469 59.589844 344.1875 C 46.289062 331.324219 30.597656 322.894531 12.441406 319.199219 C 9.730469 318.648438 6.90625 318.65625 4.128906 318.425781 C 2.894531 318.320312 1.65625 318.261719 0.414062 318.179688 C 0.414062 317.984375 0.414062 317.796875 0.414062 317.601562 " fill-opacity="1" fill-rule="evenodd"/></g></svg>