<svg xmlns="http://www.w3.org/2000/svg" xmlns:xlink="http://www.w3.org/1999/xlink" width="800" zoomAndPan="magnify" viewBox="0 0 600 299.999988" height="400" preserveAspectRatio="xMidYMid meet" version="1.0"><defs><g/></defs><g fill="#fccffd" fill-opacity="1"><g transform="translate(30.00001, 188.162503)"><g><path d="M 69.164062 -6.894531 C 58.363281 -6.203125 49.402344 -12.867188 56.523438 -60.203125 C 59.511719 -80.421875 61.808594 -100.183594 50.78125 -114.199219 C 31.25 -138.554688 -8.5 -120.863281 -24.125 -100.640625 L -20.449219 -96.964844 C -13.328125 -104.089844 -5.746094 -105.925781 0.460938 -100.640625 C 9.421875 -92.828125 8.042969 -79.960938 5.285156 -61.582031 C -0.460938 -25.734375 19.53125 0.917969 59.742188 0.917969 C 73.296875 0.917969 85.015625 -4.824219 94.667969 -14.015625 C 93.289062 13.097656 84.558594 31.710938 67.785156 31.710938 C 51.699219 31.710938 50.320312 4.136719 20.910156 4.136719 C -8.960938 4.136719 -17.234375 35.84375 -13.785156 60.890625 L -8.730469 60.890625 C -8.730469 50.78125 -6.894531 44.578125 3.445312 44.578125 C 14.933594 44.578125 19.53125 62.730469 42.277344 62.730469 C 76.515625 62.730469 102.710938 10.800781 116.265625 -36.074219 C 122.699219 -58.363281 134.191406 -104.320312 122.242188 -124.308594 L 55.605469 -124.308594 C 91.222656 -105.238281 108.226562 -9.191406 69.164062 -6.894531 Z M 69.164062 -6.894531 "/></g></g></g><g fill="#ffffff" fill-opacity="1"><g transform="translate(161.839309, 188.162503)"><g><path d="M 72.839844 -125.917969 C 31.710938 -125.917969 4.136719 -99.722656 4.136719 -62.269531 C 4.136719 -24.585938 31.710938 1.609375 72.839844 1.609375 C 113.738281 1.609375 141.3125 -24.585938 141.3125 -62.269531 C 141.3125 -99.722656 113.738281 -125.917969 72.839844 -125.917969 Z M 105.46875 -10.570312 C 92.371094 -2.296875 75.136719 -20.679688 55.605469 -51.238281 C 36.074219 -82.03125 26.882812 -105.46875 39.980469 -113.96875 C 53.078125 -122.242188 70.3125 -103.859375 89.84375 -73.070312 C 109.144531 -42.507812 118.792969 -18.839844 105.46875 -10.570312 Z M 105.46875 -10.570312 "/></g></g></g><g fill="#38b6ff" fill-opacity="1"><g transform="translate(307.241989, 188.162503)"><g/></g></g><g fill="#fff2e1" fill-opacity="1"><g transform="translate(367.873535, 188.162503)"><g/></g></g><g fill="#fff2e1" fill-opacity="1"><g transform="translate(428.532675, 188.162503)"><g/></g></g><g fill="#fff2e1" fill-opacity="1"><g transform="translate(489.191815, 188.162503)"><g/></g></g><g fill="#fff2e1" fill-opacity="1"><g transform="translate(549.850956, 188.162503)"><g/></g></g><g fill="#ffad80" fill-opacity="1"><g transform="translate(256.182963, 229.815382)"><g><path d="M 104.828125 -19.453125 C 155.269531 -28.476562 191.242188 -75.296875 186.515625 -126.503906 L 185.316406 -138.425781 L 123.117188 -127.300781 L 127.042969 -105.359375 L 164.589844 -112.078125 L 163.644531 -105.605469 C 158.519531 -72.941406 133.25 -47.179688 100.902344 -41.394531 C 58.832031 -33.867188 18.570312 -61.910156 11.042969 -103.980469 C 3.558594 -145.828125 31.601562 -186.089844 73.671875 -193.617188 C 89.957031 -196.53125 106.722656 -194.160156 121.578125 -186.78125 L 132.566406 -206.253906 C 113.566406 -215.925781 90.78125 -219.320312 69.746094 -215.558594 C 15.460938 -205.84375 -20.566406 -154.117188 -10.898438 -100.058594 C -1.1875 -45.773438 50.542969 -9.742188 104.828125 -19.453125 Z M 104.828125 -19.453125 "/></g></g></g><g fill="#fccffd" fill-opacity="1"><g transform="translate(429.780505, 191.286949)"><g><path d="M 83.640625 -125.917969 C 57.214844 -125.917969 42.738281 -109.375 28.261719 -109.375 C 20.679688 -109.375 18.152344 -115.808594 18.152344 -124.308594 L 12.179688 -124.308594 C 8.042969 -86.167969 17.464844 -74.21875 36.992188 -74.21875 C 66.863281 -74.21875 56.296875 -114.429688 71.460938 -118.792969 C 85.9375 -122.929688 93.058594 -112.820312 87.542969 -71.230469 C 81.570312 -71.921875 75.136719 -72.148438 68.015625 -72.148438 C 25.046875 -72.148438 4.136719 -59.511719 4.136719 -35.617188 C 4.136719 -11.949219 22.746094 0.917969 63.648438 0.917969 C 82.949219 0.917969 88.921875 -5.285156 90.300781 -14.015625 C 108.226562 14.476562 151.191406 -3.21875 167.277344 -24.585938 L 163.832031 -28.261719 C 156.476562 -20.910156 148.894531 -19.300781 142.921875 -24.585938 C 133.960938 -32.398438 135.109375 -45.265625 138.097656 -63.648438 C 143.839844 -99.492188 123.160156 -125.917969 83.640625 -125.917969 Z M 84.328125 -40.210938 C 84.328125 -26.195312 86.167969 -10.339844 80.652344 -7.8125 C 71.691406 -3.445312 61.808594 -10.109375 53.539062 -31.019531 C 47.105469 -46.875 48.253906 -59.742188 57.214844 -64.109375 C 63.648438 -67.324219 74.90625 -67.554688 86.855469 -65.945312 L 86.855469 -65.027344 C 85.476562 -56.523438 84.558594 -48.023438 84.328125 -40.210938 Z M 84.328125 -40.210938 "/></g></g></g></svg>